<?xml version="1.0" encoding="UTF-8"?>
<svg id="Layer_2" data-name="Layer 2" xmlns="http://www.w3.org/2000/svg" xmlns:xlink="http://www.w3.org/1999/xlink" viewBox="0 0 481.15 187.73">
  <defs>
    <style>
      .cls-1 {
        fill: url(#linear-gradient-2);
      }

      .cls-2 {
        fill: url(#linear-gradient-17);
      }

      .cls-3 {
        fill: url(#linear-gradient-15);
      }

      .cls-4 {
        fill: url(#linear-gradient-18);
      }

      .cls-5 {
        fill: url(#linear-gradient-14);
      }

      .cls-6 {
        fill: #0e1d23;
      }

      .cls-7 {
        fill: url(#linear-gradient-6);
      }

      .cls-8 {
        clip-path: url(#clippath-2);
      }

      .cls-9 {
        fill: url(#linear-gradient-11);
      }

      .cls-10 {
        font-size: 12.62px;
      }

      .cls-10, .cls-11, .cls-12, .cls-13, .cls-14 {
        fill: #998875;
      }

      .cls-10, .cls-13 {
        font-family: AbyssinicaSIL-Regular, 'Abyssinica SIL';
      }

      .cls-15 {
        clip-path: url(#clippath-1);
      }

      .cls-16 {
        clip-path: url(#clippath-4);
      }

      .cls-17 {
        fill: url(#linear-gradient-10);
      }

      .cls-18 {
        fill: #131e2a;
      }

      .cls-19 {
        fill: url(#linear-gradient-16);
      }

      .cls-12 {
        font-size: 10.09px;
      }

      .cls-12, .cls-14 {
        font-family: Satoshi-Bold, Satoshi;
      }

      .cls-20 {
        fill: url(#linear-gradient-5);
      }

      .cls-21 {
        clip-path: url(#clippath);
      }

      .cls-22, .cls-23 {
        fill: none;
      }

      .cls-24 {
        clip-path: url(#clippath-3);
      }

      .cls-25 {
        fill: url(#linear-gradient-7);
      }

      .cls-13 {
        font-size: 12.62px;
      }

      .cls-26 {
        fill: url(#linear-gradient-9);
      }

      .cls-27 {
        fill: url(#linear-gradient-3);
      }

      .cls-28 {
        fill: url(#linear-gradient);
      }

      .cls-23 {
        stroke: #0e1d23;
        stroke-miterlimit: 10;
        stroke-width: .24px;
      }

      .cls-29 {
        fill: url(#linear-gradient-4);
      }

      .cls-30 {
        fill: url(#linear-gradient-8);
      }

      .cls-14 {
        font-size: 10.09px;
      }

      .cls-31 {
        fill: url(#linear-gradient-12);
      }

      .cls-32 {
        fill: url(#linear-gradient-13);
      }
    </style>
    <clipPath id="clippath">
      <polygon class="cls-22" points="105.26 89.53 105.26 89.54 105.26 89.52 105.26 89.53"/>
    </clipPath>
    <linearGradient id="linear-gradient" x1="-8363.28" y1="1747" x2="-8362.86" y2="1747" gradientTransform="translate(2185053.15 -456143.2) scale(261.26)" gradientUnits="userSpaceOnUse">
      <stop offset="0" stop-color="#856c2a"/>
      <stop offset=".04" stop-color="#8c722f"/>
      <stop offset=".11" stop-color="#a2823d"/>
      <stop offset=".19" stop-color="#c69d55"/>
      <stop offset=".28" stop-color="#f6c376"/>
      <stop offset=".29" stop-color="#fec97b"/>
      <stop offset=".33" stop-color="#f0bc72"/>
      <stop offset=".4" stop-color="#cd9d5b"/>
      <stop offset=".5" stop-color="#946935"/>
      <stop offset=".57" stop-color="#694219"/>
      <stop offset=".6" stop-color="#744a18"/>
      <stop offset=".66" stop-color="#936118"/>
      <stop offset=".73" stop-color="#c58717"/>
      <stop offset=".8" stop-color="#fbaf17"/>
      <stop offset=".83" stop-color="#f5ab17"/>
      <stop offset=".87" stop-color="#e7a018"/>
      <stop offset=".9" stop-color="#ce8f19"/>
      <stop offset=".95" stop-color="#ac771c"/>
      <stop offset=".99" stop-color="#80591f"/>
      <stop offset="1" stop-color="#745020"/>
    </linearGradient>
    <clipPath id="clippath-1">
      <path class="cls-22" d="M59.3,92.59v40.32h8.63v-43.4c0-4.7,3.81-8.5,8.5-8.5s8.5,3.81,8.5,8.5v43.4h8.63v-40.32c0-9.46-7.67-17.13-17.13-17.13s-17.13,7.67-17.13,17.13"/>
    </clipPath>
    <linearGradient id="linear-gradient-2" x1="-8384.44" y1="1733.9" x2="-8384.02" y2="1733.9" gradientTransform="translate(13943969 2883725.27) scale(1663.09 -1663.09)" xlink:href="#linear-gradient"/>
    <clipPath id="clippath-2">
      <path class="cls-22" d="M46.15,112.65h0v15.39s7.74-2.29,9.67-11.96h4.76v-3.43h-14.43Z"/>
    </clipPath>
    <linearGradient id="linear-gradient-3" x1="-8384.94" y1="1735.43" x2="-8384.52" y2="1735.43" gradientTransform="translate(13944587.76 -2886008.24) scale(1663.06)" xlink:href="#linear-gradient"/>
    <clipPath id="clippath-3">
      <path class="cls-22" d="M96.63,92.59v20.06h8.63v-23.11h0s0-.02,0-.02h0c0-4.7,3.81-8.51,8.5-8.51s8.5,3.81,8.5,8.5v43.4h8.63v-40.32c0-9.46-7.67-17.13-17.13-17.13s-17.13,7.67-17.13,17.13"/>
    </clipPath>
    <linearGradient id="linear-gradient-4" x1="-8384.45" y1="1733.9" x2="-8384.03" y2="1733.9" gradientTransform="translate(13943983.91 2883724.85) scale(1663.09 -1663.09)" xlink:href="#linear-gradient"/>
    <clipPath id="clippath-4">
      <path class="cls-22" d="M89.39,62.1h8.53s-25.36,12.23-25.76,32.76c-.41,20.53,0,38.04,0,38.04h7.07v-41.18s.79-10.29,10.93-12.97c4.12-1.09,8.51-.55,12.26,1.47,3.37,1.81,6.99,6.52,6.87,12.05-.18,8.35-.07,26.55-.02,33.63,.02,3.25,2.53,5.96,5.77,6.18,1.62,.11,3.68-.12,6.29-.93,10.28-3.21,13.15-5.31,13.15-5.31l5.31,6.41,1,.66v-11.6s-16.03,7.74-21.45,6.74c0,0-3.05,.13-2.95-3.15,.1-3.28,0-23.93,0-32.4,0-2.1-1.14-13.94-15.29-17.68h0s-4.36-1.67-11.88-.33c1.76-2.12,11.15-13.09,19.46-16.08h-10.78s-4.55-11.57-8.53-11.86v15.55Z"/>
    </clipPath>
    <linearGradient id="linear-gradient-5" x1="-8384.95" y1="1735.43" x2="-8384.53" y2="1735.43" gradientTransform="translate(13944600.52 -2886034.3) scale(1663.06)" xlink:href="#linear-gradient"/>
    <linearGradient id="linear-gradient-6" x1="178.86" y1="85.41" x2="372.4" y2="-35.31" gradientUnits="userSpaceOnUse">
      <stop offset="0" stop-color="#7f5523"/>
      <stop offset="1" stop-color="#fcc676"/>
    </linearGradient>
    <linearGradient id="linear-gradient-7" x1="188.48" y1="100.82" x2="382.01" y2="-19.89" xlink:href="#linear-gradient-6"/>
    <linearGradient id="linear-gradient-8" x1="196.36" y1="113.46" x2="389.9" y2="-7.25" xlink:href="#linear-gradient-6"/>
    <linearGradient id="linear-gradient-9" x1="206.3" y1="129.39" x2="399.84" y2="8.68" xlink:href="#linear-gradient-6"/>
    <linearGradient id="linear-gradient-10" x1="215.99" y1="144.93" x2="409.53" y2="24.22" xlink:href="#linear-gradient-6"/>
    <linearGradient id="linear-gradient-11" x1="225.07" y1="159.5" x2="418.61" y2="38.78" xlink:href="#linear-gradient-6"/>
    <linearGradient id="linear-gradient-12" x1="246.85" y1="194.42" x2="440.39" y2="73.71" xlink:href="#linear-gradient-6"/>
    <linearGradient id="linear-gradient-13" x1="252.43" y1="203.36" x2="445.97" y2="82.65" xlink:href="#linear-gradient-6"/>
    <linearGradient id="linear-gradient-14" x1="260.26" y1="215.91" x2="453.8" y2="95.2" xlink:href="#linear-gradient-6"/>
    <linearGradient id="linear-gradient-15" x1="201.15" y1="121.14" x2="394.69" y2=".43" xlink:href="#linear-gradient-6"/>
    <linearGradient id="linear-gradient-16" x1="212.16" y1="138.8" x2="405.7" y2="18.09" xlink:href="#linear-gradient-6"/>
    <linearGradient id="linear-gradient-17" x1="222.7" y1="155.69" x2="416.24" y2="34.98" xlink:href="#linear-gradient-6"/>
    <linearGradient id="linear-gradient-18" x1="233.21" y1="172.55" x2="426.75" y2="51.84" xlink:href="#linear-gradient-6"/>
  </defs>
  <g id="Layer_1-2" data-name="Layer 1">
    <g>
      <g>
        <circle class="cls-18" cx="93.87" cy="93.87" r="93.87"/>
        <g>
          <text class="cls-12" transform="translate(61.29 24.95) rotate(-23.94)"><tspan x="0" y="0"> </tspan></text>
          <text class="cls-14" transform="translate(105.92 18.75) rotate(10.07)"><tspan x="0" y="0"> </tspan></text>
          <text class="cls-12" transform="translate(130.01 26.78) rotate(29.17)"><tspan x="0" y="0"> </tspan></text>
          <text class="cls-13" transform="translate(77.41 176.38) rotate(9.32)"><tspan x="0" y="0"> </tspan></text>
          <text class="cls-10" transform="translate(146.88 158.84) rotate(-41.58)"><tspan x="0" y="0"> </tspan></text>
          <g>
            <g>
              <polygon class="cls-11" points="11.67 75.55 16.78 76.63 10.95 78.94 10.68 80.19 17.9 81.72 18.17 80.48 13.05 79.39 18.89 77.08 19.15 75.83 11.93 74.31 11.67 75.55"/>
              <path class="cls-11" d="M14.16,67l6.05,4.99,.45-1.26-1.41-1.14,.93-2.6h1.81s.46-1.27,.46-1.27l-7.85,.03-.45,1.25Zm2.34-.02h2.53s-.67,1.89-.67,1.89l-1.96-1.59c-.17-.13-.35-.27-.48-.34,.15,.03,.38,.04,.58,.05Z"/>
              <polygon class="cls-11" points="20.46 55.51 19.39 54.98 16.91 60.01 17.97 60.54 18.93 58.6 24.48 61.34 25.05 60.18 19.5 57.44 20.46 55.51"/>
              <rect class="cls-11" x="24.62" y="48.58" width="1.29" height="7.38" transform="translate(-32.47 46.19) rotate(-58.19)"/>
              <path class="cls-11" d="M32.55,42.16c-1.77-1.39-3.91-1.19-5.21,.47-1.3,1.66-.96,3.79,.8,5.17,1.77,1.39,3.9,1.21,5.2-.46,1.31-1.67,.97-3.8-.79-5.18Zm-.18,4.41c-.83,1.07-2.16,1.13-3.4,.16-1.24-.97-1.49-2.27-.66-3.34,.83-1.07,2.16-1.13,3.4-.16,1.22,.96,1.49,2.27,.66,3.34Z"/>
              <polygon class="cls-11" points="36.65 32.69 40.27 36.46 34.15 35.09 33.23 35.98 38.35 41.3 39.26 40.41 35.64 36.65 41.77 38.01 42.68 37.13 37.57 31.81 36.65 32.69"/>
              <path class="cls-11" d="M43.52,27.01l2.2,7.53,1.08-.79-.53-1.73,2.23-1.63,1.49,1.03,1.1-.8-6.51-4.39-1.07,.78Zm1.95,1.3l2.09,1.42-1.61,1.18-.73-2.42c-.06-.2-.14-.42-.2-.55,.11,.11,.29,.25,.46,.37Z"/>
              <polygon class="cls-11" points="55.04 26.87 52.02 21.47 50.89 22.1 54.5 28.54 58.32 26.39 57.74 25.36 55.04 26.87"/>
              <path class="cls-11" d="M70.2,17.6c.57-.5,.73-1.17,.48-1.94-.39-1.17-1.47-1.61-2.85-1.16l-2.79,.92,2.31,7.01,2.84-.93c1.45-.48,2.05-1.45,1.66-2.65-.27-.82-.83-1.25-1.64-1.24Zm-2.95,.41l-.63-1.91,1.46-.48c.69-.23,1.18-.03,1.38,.58,.21,.62-.05,1.1-.72,1.32l-1.49,.49Zm2.53,2.42l-1.56,.51-.63-1.9,1.56-.51c.68-.22,1.18-.02,1.38,.58,.21,.63-.06,1.09-.76,1.32Z"/>
              <path class="cls-11" d="M76.99,12.09l-1.2,7.75,1.32-.26,.26-1.79,2.7-.53,.91,1.56,1.34-.26-4.03-6.73-1.3,.25Zm.54,4.56l.37-2.5c.03-.21,.05-.44,.05-.59,.05,.14,.16,.35,.26,.53l1.29,2.18-1.96,.38Z"/>
              <polygon class="cls-11" points="90.57 10.44 90.88 15.66 87.11 10.65 85.83 10.72 86.27 18.09 87.54 18.02 87.23 12.8 91.01 17.81 92.28 17.73 91.84 10.37 90.57 10.44"/>
              <polygon class="cls-11" points="101.78 10.75 98.52 14.39 98.8 10.53 97.51 10.43 96.97 17.79 98.26 17.89 98.37 16.32 99.71 14.85 101.3 18.11 102.79 18.22 100.63 13.82 103.3 10.86 101.78 10.75"/>
              <path class="cls-11" d="M117.56,13.66c-2.02-.59-3.87,.51-4.5,2.66-.63,2.16,.32,4.07,2.35,4.67,2.03,.6,3.89-.5,4.52-2.65,.63-2.16-.34-4.08-2.37-4.67Zm1.06,4.29c-.44,1.49-1.56,2.23-2.86,1.85-1.3-.38-1.85-1.58-1.41-3.1,.44-1.51,1.56-2.23,2.86-1.85,1.3,.38,1.85,1.58,1.41,3.09Z"/>
              <polygon class="cls-11" points="122.86 23.43 124.04 23.95 125.26 21.19 127.77 22.3 128.24 21.23 125.72 20.13 126.53 18.29 129.53 19.61 130.01 18.51 125.83 16.68 122.86 23.43"/>
              <polygon class="cls-11" points="135.74 30.15 139.49 32.79 140.17 31.82 137.48 29.92 138.61 28.32 141.02 30.02 141.67 29.08 139.26 27.39 140.36 25.84 143.05 27.73 143.73 26.76 139.99 24.12 135.74 30.15"/>
              <polygon class="cls-11" points="151.61 33.26 147.39 29.55 146.61 30.45 148.23 31.87 144.15 36.52 145.12 37.38 149.2 32.73 150.82 34.15 151.61 33.26"/>
              <polygon class="cls-11" points="158.16 40.19 155.88 42.21 153.71 39.76 156 37.74 155.15 36.77 149.61 41.65 150.47 42.62 152.81 40.55 154.98 43.01 152.63 45.08 153.49 46.04 159.02 41.16 158.16 40.19"/>
              <rect class="cls-11" x="155.99" y="47.54" width="7.38" height="1.29" transform="translate(1.45 100.93) rotate(-35.23)"/>
              <path class="cls-11" d="M167.74,53.88c-1.02-1.85-3.1-2.37-5.07-1.29-1.97,1.09-2.64,3.12-1.62,4.96,1.02,1.86,3.11,2.39,5.08,1.3,1.97-1.09,2.63-3.13,1.61-4.98Zm-5.6,3.09c-.65-1.18-.2-2.43,1.18-3.19,1.38-.76,2.67-.48,3.33,.7,.65,1.18,.2,2.43-1.18,3.19-1.36,.75-2.67,.48-3.33-.7Z"/>
              <path class="cls-11" d="M171.19,67.73c1.35-.52,1.9-1.77,1.36-3.15l-1.06-2.72-6.88,2.67,.47,1.2,2.37-.92,.59,1.51c.53,1.37,1.82,1.92,3.14,1.4Zm-.3-4.25l.5,1.28c.31,.8,.07,1.41-.68,1.71-.75,.29-1.37,.02-1.69-.81l-.49-1.26,2.36-.92Z"/>
              <rect class="cls-11" x="167.8" y="72.49" width="7.38" height="1.29" transform="translate(-13.31 48.48) rotate(-15.5)"/>
              <path class="cls-11" d="M176.83,79.99l-7.72-1.39,.22,1.32,1.78,.3,.46,2.72-1.58,.87,.23,1.34,6.83-3.86-.22-1.3Zm-2.04,1.16l-2.21,1.23-.33-1.97,2.49,.43c.21,.04,.44,.06,.58,.06-.15,.04-.35,.15-.53,.24Z"/>
            </g>
            <g>
              <path class="cls-11" d="M22.72,128.35c.34,.28,.72,.46,1.14,.55,.42,.09,.84,.03,1.28-.17,.45-.21,.71-.48,.79-.83,.07-.35,.01-.73-.18-1.15-.16-.36-.36-.68-.6-.99-.24-.3-.51-.56-.81-.75-.3-.2-.64-.31-1-.35-.36-.04-.75,.04-1.15,.22-.25,.12-.46,.25-.63,.39-.16,.14-.32,.3-.47,.48-.15,.17-.32,.36-.51,.55-.2,.19-.45,.4-.77,.61-.31,.21-.72,.43-1.23,.66-.11,.05-.23,.1-.34,.14-.12,.04-.23,.08-.34,.14-.13,.06-.2,.16-.2,.3s.03,.26,.08,.37c.04,.08,.11,.2,.22,.36,.11,.16,.22,.32,.34,.48,.12,.17,.21,.3,.29,.4l.14-.06c-.04-.14,.04-.28,.26-.42,.21-.14,.57-.33,1.08-.56,.37-.17,.7-.36,.98-.56,.28-.21,.55-.46,.81-.78,.22,.38,.5,.71,.85,.99Zm-.12-1.82c.16-.13,.35-.25,.58-.36,.32-.15,.61-.22,.88-.22,.26,0,.48,.05,.66,.14,.18,.09,.29,.2,.35,.32,.07,.16,.05,.31-.06,.46s-.24,.25-.37,.31c-.25,.11-.53,.19-.83,.23-.3,.04-.6,.03-.89-.04-.29-.06-.55-.18-.78-.36,.15-.19,.31-.35,.46-.49Z"/>
              <path class="cls-11" d="M30.17,134.16l-1.08-1.03-.13,.09c.04,.12,.04,.23-.01,.33-.05,.1-.12,.18-.22,.26l-1.56,1.22,.87,.92c-.71-.08-1.46-.1-2.26-.07-.8,.03-1.55,.13-2.24,.31-.16,.04-.32,.09-.5,.15-.18,.06-.34,.14-.47,.22-.4,.27-.48,.6-.22,.98,.05,.07,.1,.13,.16,.2l.85,.95,.15-.06c-.06-.13-.07-.24,0-.32s.14-.16,.25-.23c.1-.07,.28-.14,.55-.22,.26-.08,.55-.15,.87-.23,.32-.07,.61-.14,.89-.19s.48-.08,.61-.09c.19,.28,.31,.51,.37,.69s.05,.36-.03,.53c-.08,.17-.24,.37-.48,.59l-.26,.24c-.39,.36-.68,.64-.88,.85-.2,.2-.33,.36-.41,.46-.07,.11-.12,.2-.14,.27-.02,.08-.01,.15,0,.22,.02,.07,.05,.14,.1,.2,.02,.03,.04,.05,.06,.08,.02,.03,.04,.05,.06,.07l1.24,1.46c-.16,.13-.26,.29-.29,.46-.03,.17-.01,.35,.05,.53,.06,.18,.14,.34,.24,.49,.1,.15,.22,.29,.36,.43,.14,.13,.28,.25,.42,.36,.03-.17,.09-.34,.19-.51,.1-.17,.22-.3,.37-.4,.1-.07,.23-.12,.38-.16,.15-.04,.29-.07,.4-.07-.02-.07-.05-.15-.09-.22-.04-.07-.08-.14-.13-.21-.1-.15-.23-.31-.39-.47-.16-.16-.34-.3-.53-.4-.19-.1-.39-.12-.6-.07-.09-.1-.2-.21-.31-.34-.11-.12-.2-.23-.25-.3-.08-.13,0-.32,.26-.59,.26-.27,.63-.61,1.11-1.01,.48-.4,.82-.76,1.02-1.1,.21-.34,.22-.63,.04-.9-.05-.08-.1-.14-.16-.2-.06-.06-.12-.12-.19-.18l-1.01-.87c.44-.04,.89-.06,1.33-.05,.44,0,.89,.02,1.32,.05l-1.19-1.27,1.57-1.14c.2-.15,.23-.34,.09-.56-.04-.06-.09-.12-.15-.17Z"/>
              <path class="cls-11" d="M40.34,150.22c.21-.16,.42-.31,.61-.46,.19-.15,.32-.25,.38-.32,.14-.15,.22-.28,.23-.42s-.07-.27-.22-.42c-.07-.07-.17-.16-.31-.29s-.29-.26-.45-.4c-.16-.14-.31-.27-.45-.39,.12,.01,.24,.01,.36-.01s.23-.08,.32-.16c.16-.16,.23-.33,.21-.5-.02-.17-.09-.33-.2-.49-.12-.15-.24-.29-.36-.42-.1-.1-.23-.21-.38-.33-.15-.12-.29-.21-.43-.26,.02,.12-.01,.26-.09,.4-.08,.14-.17,.26-.25,.34-.09,.09-.21,.17-.35,.23s-.28,.08-.42,.04c.03,.09,.08,.18,.16,.28s.14,.18,.21,.25c.29,.28,.61,.48,.96,.58,.08,.15,.14,.31,.16,.49,.02,.18-.03,.33-.16,.47-.07,.07-.19,.17-.36,.31-.17,.13-.34,.27-.53,.4-.19,.14-.35,.26-.49,.37l-2.46-2.1c-.06,.1-.13,.2-.21,.29-.09,.09-.17,.18-.25,.26-.11,.11-.26,.23-.45,.34s-.36,.18-.53,.18c0,.09,.03,.18,.09,.27,.06,.1,.12,.17,.18,.23,.21,.21,.45,.34,.72,.39,.27,.05,.54,.03,.81-.05,.27-.09,.5-.23,.7-.43l1.04,.89-2.88,2.16c-.07,.06-.15,.12-.24,.2-.09,.08-.17,.15-.23,.21-.15,.15-.24,.29-.29,.43s.02,.29,.18,.46c.05,.05,.1,.09,.15,.13,.05,.04,.1,.07,.16,.11l.97,.66,.14-.14c-.06-.14-.05-.28,0-.4,.06-.13,.14-.24,.24-.34,.09-.09,.19-.18,.32-.27,.12-.09,.23-.18,.33-.25l2.46-1.84,.94,.82s-.04,.03-.05,.05c-.02,.02-.04,.03-.05,.05-.56,.56-.56,1.12-.02,1.66,.09,.09,.21,.17,.36,.24s.28,.1,.42,.11c-.02-.08,0-.18,.05-.3,.05-.11,.12-.22,.2-.32s.15-.18,.2-.23c.08-.08,.16-.15,.26-.24,.1-.08,.2-.15,.29-.2l-2.24-1.92c.14-.11,.32-.24,.53-.4Z"/>
              <path class="cls-11" d="M50.6,157.96c.29-.41,.37-.78,.26-1.11s-.36-.64-.74-.91c-.32-.23-.66-.41-1.02-.55-.36-.14-.72-.22-1.08-.24-.36-.02-.71,.05-1.04,.2-.33,.15-.63,.41-.88,.78-.12,.17-.23,.38-.32,.62-.09,.24-.16,.49-.22,.73-.06,.24-.11,.45-.14,.63-.03,.19-.1,.42-.21,.67-.11,.25-.24,.51-.4,.76-.15,.26-.31,.5-.47,.73-.07,.1-.15,.2-.23,.29-.08,.09-.16,.19-.23,.29-.09,.12-.09,.24-.02,.36,.07,.12,.15,.21,.25,.28,.1,.07,.23,.14,.4,.22,.17,.08,.34,.16,.52,.23,.17,.08,.32,.14,.43,.19l.09-.13c-.09-.09-.11-.21-.05-.38,.05-.16,.16-.36,.33-.6,.06-.09,.13-.18,.19-.28,.06-.09,.13-.19,.19-.28,.24-.34,.42-.66,.56-.98,.14-.32,.24-.68,.31-1.08,.36,.21,.76,.35,1.18,.43,.42,.07,.84,.05,1.24-.07l.74,.38c-.21,.32-.34,.62-.37,.9-.04,.28,.13,.55,.5,.81,.15,.11,.32,.2,.49,.28,.17,.08,.35,.1,.55,.07-.06-.05-.07-.14-.04-.25,.03-.12,.08-.23,.14-.34,.06-.11,.11-.19,.14-.23,.07-.1,.17-.22,.29-.36,.12-.14,.24-.23,.36-.29l-2.27-1.22c.22-.14,.42-.32,.58-.55Zm-1.06-1.53c-.02,.18-.08,.33-.16,.45-.16,.22-.36,.43-.6,.61-.24,.18-.5,.32-.78,.42s-.57,.12-.85,.08c.03-.24,.09-.46,.15-.66,.07-.2,.17-.4,.32-.6,.11-.15,.26-.31,.46-.48,.2-.17,.42-.28,.65-.35s.44-.04,.63,.1c.14,.1,.2,.24,.17,.42Z"/>
              <path class="cls-11" d="M61.32,163.61c-.19-.25-.43-.47-.72-.65l.68-1.27c.1-.19,.05-.33-.16-.43-.06-.03-.11-.05-.17-.06l-1.31-.39-.1,.2c.09,.04,.13,.1,.13,.2,0,.09-.02,.17-.06,.24l-.48,.92c-1.05-.19-1.8,.18-2.26,1.13-.14,.28-.18,.54-.14,.78,.04,.24,.21,.43,.52,.58,.16,.08,.33,.15,.49,.21,.16,.06,.33,.13,.49,.2-.18,.07-.36,.15-.54,.22-.18,.07-.37,.14-.56,.2-.58,.21-1.04,.39-1.38,.56s-.6,.33-.78,.49c-.18,.16-.32,.34-.41,.53-.11,.22-.12,.4-.03,.54s.23,.26,.43,.36c.06,.03,.12,.05,.18,.07,.06,.02,.12,.04,.18,.06l1.09,.4,.08-.16c-.14-.11-.23-.21-.28-.31s-.02-.23,.06-.41c.04-.09,.12-.18,.23-.27,.11-.09,.29-.19,.54-.32s.6-.27,1.05-.44c.34,.21,.51,.43,.51,.68,0,.24-.05,.53-.18,.86-.18,.5-.3,.88-.35,1.13-.05,.25,.04,.44,.29,.56,.12,.06,.28,.11,.46,.17,.19,.05,.37,.1,.56,.14,.19,.04,.35,.08,.47,.12l.07-.14s-.04-.01-.07-.03c-.15-.07-.19-.22-.13-.44,.06-.22,.15-.47,.25-.76,.09-.24,.17-.49,.22-.75,.06-.26,.06-.5,0-.72-.06-.22-.23-.4-.51-.53l-.52-.25c-.17-.08-.35-.16-.53-.24,.14-.06,.23-.1,.28-.12,.05-.02,.09-.04,.14-.06,.04-.02,.12-.05,.23-.1s.3-.13,.58-.25c.29-.13,.56-.26,.81-.41,.25-.14,.45-.36,.6-.66l.5,.15c-.21,.32-.25,.61-.1,.89s.37,.49,.67,.64c.15,.07,.32,.13,.51,.16,.19,.04,.37,.04,.53,.02-.07-.12-.11-.28-.12-.46-.01-.18,.01-.34,.08-.47,.06-.12,.13-.24,.21-.35,.08-.12,.17-.22,.26-.32l-2.36-.71c.1-.37,.06-.68-.13-.93Zm-1.43,.44c-.12,.25-.28,.45-.48,.59-.2,.15-.42,.28-.66,.4-.24-.15-.38-.31-.43-.5-.04-.19,0-.4,.11-.64,.07-.14,.17-.29,.29-.43,.13-.15,.27-.26,.44-.33,.16-.07,.33-.07,.51,.02,.2,.09,.3,.22,.32,.39,.02,.17-.02,.34-.1,.52Z"/>
              <path class="cls-11" d="M74.05,167.15c-.4-.12-.81-.19-1.23-.2-.42-.01-.82,.04-1.2,.16s-.72,.32-1,.59c-.29,.27-.5,.64-.64,1.09-.11,.37-.18,.8-.19,1.29-.02,.48,0,.97,.05,1.45s.12,.92,.2,1.31l-1.08,.04c-.05-.1-.13-.19-.26-.26-.13-.07-.24-.12-.34-.15-.16-.05-.34-.07-.55-.07-.21,0-.4,.02-.56,.06,0,.16-.02,.32-.04,.49-.02,.17-.06,.33-.1,.48-.03,.11-.08,.24-.14,.36-.06,.13-.13,.24-.21,.34,.04,.05,.1,.1,.17,.15,.07,.05,.14,.08,.21,.1,.21,.06,.45,.09,.71,.07,.27-.02,.51-.09,.73-.2,.22-.12,.37-.3,.45-.55,.01-.04,.03-.11,.04-.19,.02-.08,.02-.15,0-.2l2.53-.14c-.09-.49-.16-.99-.2-1.5-.04-.51-.04-1.02,0-1.51,.35,.1,.71,.16,1.08,.21,.37,.04,.73,.03,1.07-.04,.34-.07,.64-.21,.9-.43,.26-.22,.45-.54,.58-.95,.12-.39,.08-.76-.11-1.1-.19-.34-.48-.57-.87-.69Zm-.38,1.04c-.08,.28-.25,.53-.49,.75-.24,.22-.52,.39-.82,.52-.31,.13-.6,.2-.88,.21,.05-.23,.13-.48,.25-.76s.27-.54,.44-.78c.17-.24,.37-.43,.58-.56,.21-.13,.44-.16,.67-.09,.17,.05,.26,.15,.28,.29,.02,.14,.01,.28-.03,.42Z"/>
              <path class="cls-11" d="M96.15,177.33c-.02-.1-.03-.25-.03-.44,0-.16,.01-.39,.03-.68,.02-.29,.03-.62,.06-.98,.02-.36,.04-.72,.07-1.09,.02-.37,.04-.71,.06-1.03,.02-.32,.03-.57,.03-.77,0-.45-.04-.86-.14-1.21-.1-.36-.29-.64-.56-.85-.27-.21-.67-.32-1.19-.33-.39,0-.77,.03-1.14,.12-.38,.09-.72,.23-1.04,.45s-.57,.5-.76,.86c-.1,.19-.19,.38-.26,.57-.07,.19-.13,.39-.17,.6l-2.77,.33c.06,.13,.11,.28,.14,.45,.03,.17,.05,.33,.04,.47,0,.16-.03,.33-.07,.52s-.14,.33-.28,.43c.07,.05,.15,.08,.25,.1,.1,.02,.19,.03,.27,.03,.53,0,.93-.16,1.21-.52,.27-.35,.43-.77,.47-1.26l.67-.09c-.04,.41-.06,.83-.07,1.25s-.02,.84-.03,1.25c0,.57,0,1,.03,1.31,.03,.31,.07,.53,.12,.66,.05,.13,.09,.22,.14,.27,.08,.1,.2,.14,.35,.15,.07,0,.15,0,.22-.02l1.28-.17v-.16c-.25-.05-.39-.19-.43-.42-.04-.23-.06-.59-.05-1.09v-.56c.03-1.01,.06-1.83,.12-2.45,.06-.62,.12-1.09,.19-1.42,.07-.33,.15-.56,.22-.7,.07-.14,.14-.23,.19-.29,.08-.08,.16-.13,.26-.16s.19-.04,.3-.04c.27,0,.47,.1,.6,.28,.13,.19,.21,.4,.25,.65,.04,.25,.05,.48,.05,.69,0,.19-.01,.46-.03,.79-.02,.34-.04,.71-.07,1.12-.03,.41-.06,.82-.09,1.24-.03,.42-.05,.81-.07,1.17-.02,.36-.03,.65-.04,.88,0,.19,.02,.35,.08,.49,.06,.13,.2,.2,.42,.2,.08,0,.16,0,.23-.01l1.32-.17v-.2c-.22-.04-.35-.12-.37-.22Z"/>
              <path class="cls-11" d="M113.73,173.01c-.23,.05-.45,.12-.66,.21-.21,.1-.42,.17-.65,.22l-.28-.95c-.07-.23-.16-.44-.28-.63-.12-.19-.27-.33-.45-.43-.18-.1-.41-.12-.67-.07-.19,.04-.45,.12-.77,.24-.32,.12-.61,.23-.87,.34l-.1-1.96c0-.15-.02-.32-.03-.52-.01-.2-.03-.34-.04-.42-.04-.21-.21-.28-.5-.22-.04,0-.11,.02-.2,.05s-.16,.05-.2,.06l-1.23,.44,.04,.21c.23,.02,.38,.15,.42,.39,.01,.06,.02,.18,.04,.37,.01,.19,.03,.42,.05,.68,.02,.26,.03,.52,.04,.79s.03,.5,.04,.7c-.74,.15-1.37,.4-1.88,.76-.51,.36-.87,.82-1.09,1.38-.21,.57-.24,1.23-.09,2.01,.05,.23,.13,.4,.25,.5s.3,.13,.54,.08c.1-.02,.19-.04,.27-.07l1.18-.4-.04-.19c-.17,.01-.3-.2-.38-.65-.06-.29-.09-.59-.09-.9,0-.31,.03-.6,.12-.88,.08-.28,.22-.51,.42-.72,.2-.2,.46-.34,.8-.43l.12,2.52c0,.11,.02,.25,.03,.42,.01,.17,.03,.29,.05,.37,.04,.19,.13,.29,.28,.31,.15,.02,.3,.02,.45-.01,.17-.03,.4-.1,.71-.19,.31-.09,.59-.18,.84-.26l-.04-.19c-.15,.02-.27-.02-.37-.11-.1-.09-.16-.2-.19-.35-.03-.17-.05-.34-.06-.5l-.15-2.65c.33-.07,.63-.04,.88,.06,.25,.11,.43,.34,.52,.69l.6,2.37c.05,.2,.14,.33,.27,.39,.13,.07,.29,.08,.48,.04,.21-.04,.42-.11,.61-.2,.19-.09,.4-.16,.61-.2l.64-.13c.24-.05,.47-.14,.7-.27,.22-.13,.4-.3,.52-.5,.13-.2,.16-.45,.11-.72-.15-.75-.59-1.06-1.33-.91Zm-.31,1.8c-.04,.17-.14,.27-.29,.3-.12,.02-.21,0-.25-.08-.05-.08-.08-.17-.11-.26-.03-.15-.07-.31-.11-.46-.04-.15-.08-.31-.12-.46,.05-.02,.09-.03,.14-.04s.09-.02,.14-.03c.18-.03,.32,.02,.42,.15,.11,.13,.17,.28,.2,.43,.02,.12,.02,.27-.03,.44Z"/>
              <path class="cls-11" d="M129.4,166.87c-.16-.26-.29-.53-.41-.8-.3,.16-.59,.33-.89,.51-.3,.17-.58,.36-.86,.55-.45,.3-.82,.63-1.12,.96-.3,.34-.49,.71-.57,1.13-.08,.42-.02,.91,.19,1.47-.35,.15-.64,.23-.88,.24-.24,.01-.43-.16-.59-.51-.16-.37-.22-.73-.19-1.11,.03-.37,.12-.74,.26-1.12,.14-.37,.31-.74,.49-1.11,.18-.37,.35-.73,.5-1.08,.15-.35,.25-.7,.3-1.03,.05-.33,0-.65-.12-.95-.06-.13-.13-.25-.21-.36-.09-.11-.21-.13-.38-.06-.12,.05-.22,.11-.31,.16l-1.17,.77,.09,.21c.08-.03,.14-.02,.18,.03,.05,.05,.08,.1,.11,.16,.1,.24,.12,.52,.06,.83-.07,.31-.18,.64-.34,1-.16,.36-.34,.73-.53,1.11-.19,.39-.36,.78-.5,1.17-.14,.4-.23,.79-.26,1.18-.03,.39,.03,.77,.19,1.13,.19,.44,.49,.72,.89,.84s.81,.08,1.23-.1c.36-.16,.68-.36,.96-.61l1.86-1.64c-.06-.15-.13-.29-.19-.44-.06-.15-.12-.3-.17-.45-.13-.41-.14-.72-.03-.93,.11-.21,.35-.42,.72-.61,.16,.39,.39,.62,.67,.71,.28,.09,.61,.05,.97-.11,.09-.04,.21-.1,.35-.19,.14-.08,.24-.17,.3-.26-.26-.18-.46-.4-.62-.66Z"/>
              <path class="cls-11" d="M142.08,161.76c-.06-.09-.11-.2-.16-.31-.04-.11-.05-.23-.01-.34-.06,0-.12,.03-.2,.07-.07,.04-.14,.08-.18,.11-.15,.1-.31,.23-.48,.39-.16,.16-.3,.34-.4,.53-.1,.19-.13,.4-.09,.61-.09,.07-.18,.14-.27,.22-.09,.07-.18,.14-.28,.21-.05,.03-.1,.03-.15-.02-.05-.04-.09-.08-.1-.12l-1.59-2.9c.1-.05,.2-.09,.3-.14,.1-.05,.19-.1,.28-.16,.33-.22,.59-.5,.78-.86,.19-.35,.29-.73,.29-1.12s-.1-.76-.33-1.1c-.27-.41-.63-.69-1.07-.81-.44-.13-.88-.05-1.31,.24-.29,.19-.56,.42-.8,.69-.24,.27-.51,.5-.81,.7-.34,.23-.66,.5-.97,.81-.3,.31-.54,.65-.73,1.02s-.28,.75-.28,1.14,.13,.78,.39,1.17c.27,.4,.59,.66,.96,.77,.37,.11,.76,.03,1.18-.25,.18-.12,.34-.27,.48-.45,.13-.18,.25-.37,.34-.57l1.29,2.38c.04,.06,.09,.15,.15,.26,.07,.11,.12,.2,.16,.26,.14,.21,.28,.32,.42,.33s.31-.06,.51-.19c.18-.12,.4-.29,.66-.51,.26-.22,.5-.42,.72-.61,.23,.28,.47,.41,.7,.39s.49-.12,.76-.3c.18-.12,.35-.26,.5-.42s.27-.34,.35-.54c-.23,.01-.43-.03-.59-.13-.16-.1-.3-.24-.42-.43Zm-5.58-.63c-.06,.09-.13,.16-.2,.21-.11,.07-.23,.09-.35,.03-.12-.05-.23-.13-.32-.24-.1-.11-.17-.2-.23-.28-.15-.23-.29-.5-.42-.8-.13-.3-.18-.61-.16-.91,.02-.3,.16-.56,.42-.78l1.41,2.53c-.04,.07-.09,.15-.16,.24Zm1.45-1.31l-1.38-2.46s.08-.07,.12-.11c.04-.04,.08-.07,.12-.1,.2-.13,.4-.15,.58-.04,.19,.11,.34,.24,.45,.42,.06,.09,.14,.22,.24,.42,.1,.19,.2,.4,.29,.62,.09,.22,.13,.43,.14,.63,0,.19-.05,.34-.19,.42-.12,.08-.24,.15-.37,.2Z"/>
              <path class="cls-11" d="M157.22,147.64c-.09-.05-.21-.13-.36-.26-.21-.18-.45-.41-.74-.69-.29-.28-.59-.57-.91-.88-.32-.31-.62-.6-.91-.88-.29-.28-.53-.51-.74-.69-.34-.3-.68-.53-1.02-.69-.34-.16-.67-.2-1.01-.12-.34,.07-.68,.3-1.02,.69-.46,.52-.76,1.01-.9,1.49-.14,.48-.15,.93-.03,1.37,.12,.44,.34,.87,.66,1.29,.32,.42,.71,.83,1.16,1.23,.33,.29,.58,.49,.76,.6,.18,.11,.31,.17,.39,.19,.08,.01,.16,.02,.22,.03,.05,0,.1-.01,.13-.05,.04-.03,.07-.07,.1-.1,.04-.04,.07-.09,.1-.14,.03-.05,.06-.1,.09-.14l.67-1.11-.12-.11c-.14,.1-.26,.15-.35,.17-.09,.01-.19-.02-.3-.1-.11-.08-.26-.2-.45-.37l-.36-.32c-.45-.4-.85-.8-1.21-1.19-.35-.39-.59-.76-.73-1.1-.13-.34-.09-.63,.13-.88,.18-.2,.38-.29,.61-.27,.23,.02,.45,.1,.66,.23s.4,.27,.55,.41c.17,.15,.38,.34,.63,.59,.25,.24,.53,.51,.82,.8,.29,.29,.58,.57,.87,.86,.29,.29,.56,.55,.81,.79,.25,.24,.46,.43,.62,.58,.14,.13,.28,.21,.42,.26,.14,.04,.28-.02,.43-.19,.05-.06,.1-.12,.14-.19l.73-1.11-.15-.13c-.18,.14-.32,.19-.41,.14Z"/>
              <path class="cls-11" d="M162.88,139.87c-.06-.04-.11-.1-.16-.18l-2.19-3.76c-.03-.06-.07-.1-.12-.13-.12-.08-.23-.06-.32,.07l-.88,1.31s-.09-.15-.19-.32c-.11-.17-.23-.36-.37-.58s-.27-.4-.39-.58c-.12-.17-.21-.28-.26-.31-.2-.14-.45-.09-.75,.13-.3,.22-.62,.58-.95,1.07-.16,.24-.33,.52-.52,.84-.19,.32-.36,.65-.51,.99-.15,.34-.26,.65-.32,.94,.25,0,.48,.08,.7,.23,.12,.08,.24,.22,.35,.42,.11,.2,.19,.36,.25,.5,.07-.02,.15-.08,.24-.19,.09-.1,.15-.18,.19-.24,.16-.23,.24-.49,.26-.77,.02-.28-.03-.55-.14-.8-.11-.26-.28-.46-.52-.62-.06-.04-.12-.07-.18-.1,.05-.13,.1-.23,.15-.31,.16-.24,.3-.4,.41-.47,.11-.08,.27-.04,.48,.1,.11,.08,.21,.18,.29,.3l.88,1.36,.98-1.45,2.38,3.89c.04,.06,.09,.13,.14,.19,.05,.06,.11,.12,.17,.16,.15,.1,.28,.12,.41,.06,.13-.06,.23-.16,.32-.29,.06-.08,.1-.16,.13-.24l.49-1.11-.19-.13c-.08,.06-.17,.07-.26,0Z"/>
              <path class="cls-11" d="M169.6,128.03c-.06,.08-.14,.12-.22,.1-.08-.02-.16-.04-.24-.08-.37-.18-.72-.39-1.04-.64-.33-.25-.65-.49-.97-.74-.32-.25-.66-.46-1.02-.63-.64-.31-1.16-.39-1.57-.24-.41,.15-.76,.53-1.06,1.16-.2,.42-.36,.86-.48,1.33-.12,.47-.16,.94-.11,1.41l-2.18-1.06c-.11-.05-.21-.08-.31-.08s-.18,.06-.24,.19c-.03,.06-.05,.13-.06,.2l-.27,1.51,.13,.06c.08-.13,.17-.18,.28-.17,.11,.01,.22,.05,.33,.1l1.62,.79c.15,.07,.25,.11,.31,.1,.05,0,.1-.05,.13-.12,.04-.08,.09-.21,.17-.41,.08-.2,.15-.37,.21-.52,.16,.59,.49,1.1,.98,1.51l.51-.97c.24,.51,.57,.97,.98,1.38s.87,.74,1.38,.98c.16,.08,.31,.12,.47,.14,.15,.02,.27-.07,.37-.26,.01-.03,.02-.05,.03-.08,0-.02,.02-.05,.03-.08l.38-1.23-.14-.07c-.07,.08-.15,.12-.23,.12-.08,0-.18-.02-.29-.08-.04-.02-.1-.06-.18-.13-.08-.07-.17-.14-.25-.21-.09-.07-.15-.13-.2-.17l-1.93-1.74-.31,.64c-.21-.17-.41-.39-.6-.65-.19-.26-.33-.54-.4-.84s-.05-.59,.08-.87c.14-.3,.33-.45,.56-.48,.23-.02,.48,.03,.74,.16,.22,.11,.49,.27,.82,.48,.32,.21,.66,.45,1.02,.7,.36,.25,.7,.48,1.02,.7s.61,.38,.83,.49c.18,.09,.31,.12,.39,.1s.15-.08,.2-.19c.02-.05,.04-.1,.06-.15,.02-.05,.04-.1,.06-.15l.42-1.23-.19-.09Z"/>
            </g>
          </g>
          <g>
            <g class="cls-21">
              <rect class="cls-28" x="105.25" y="89.52" width=".01" height=".02" transform="translate(-32.52 79) rotate(-36.01)"/>
            </g>
            <g class="cls-15">
              <rect class="cls-1" x="59.3" y="75.46" width="34.26" height="57.44"/>
            </g>
            <g class="cls-8">
              <rect class="cls-27" x="43.01" y="109.88" width="20.72" height="20.93" transform="translate(-60.55 54.37) rotate(-36.01)"/>
            </g>
            <g class="cls-24">
              <rect class="cls-29" x="96.63" y="75.46" width="34.26" height="57.44"/>
            </g>
            <g class="cls-16">
              <rect class="cls-20" x="52.97" y="34.5" width="106.63" height="110.45" transform="translate(-32.44 79.62) rotate(-36.01)"/>
              <rect class="cls-23" x="52.97" y="34.5" width="106.63" height="110.45" transform="translate(-32.44 79.62) rotate(-36.01)"/>
            </g>
            <path class="cls-6" d="M140.91,133.13l-1.21-.8-5.24-6.33c-.58,.38-3.9,2.39-13.1,5.26-2.39,.75-4.53,1.06-6.34,.94-3.28-.22-5.86-2.99-5.89-6.3-.11-16.21-.11-27.84,.02-33.63,.12-5.37-3.34-10.08-6.81-11.94-3.76-2.02-8.09-2.54-12.18-1.46-9.93,2.63-10.83,12.76-10.84,12.86v41.3s-7.31,0-7.31,0v-.12c0-.18-.4-17.75,0-38.05,.21-10.65,7.23-19.02,13.07-24.17,5.36-4.71,10.74-7.66,12.3-8.47h-8.14v-15.8h.13c3.88,.3,8.17,10.78,8.6,11.87h11.39l-.65,.23c-7.99,2.88-16.97,13.14-19.19,15.79,7.27-1.23,11.57,.37,11.62,.39h0c15.19,4.02,15.36,17.23,15.36,17.79,0,2.6,0,6.36,.02,10.4,.02,9.25,.05,19.72-.02,22-.03,.97,.22,1.73,.75,2.25,.83,.82,2.06,.78,2.08,.78,5.34,.98,21.24-6.65,21.4-6.73l.17-.08v12.02Zm-68.65-.35h6.84v-41.06c0-.11,.92-10.41,11.02-13.08,4.15-1.1,8.53-.57,12.35,1.48,3.54,1.9,7.06,6.69,6.94,12.16-.12,5.78-.13,17.41-.02,33.62,.02,3.18,2.51,5.85,5.66,6.06,1.78,.12,3.89-.19,6.25-.93,10.13-3.16,13.09-5.27,13.12-5.29l.09-.07,5.37,6.49,.79,.52v-11.18c-1.84,.88-16.19,7.62-21.35,6.67-.03,0-1.33,.05-2.23-.84-.58-.57-.85-1.39-.82-2.43,.07-2.27,.04-12.75,.02-21.99-.01-4.05-.02-7.8-.02-10.4,0-.55-.17-13.59-15.2-17.56l-.9-.24h.1c-1.57-.4-5.44-1.08-11.02-.09l-.33,.06,.21-.25c1.75-2.11,10.72-12.58,18.89-15.88h-10.21l-.03-.08c-.04-.11-4.47-11.25-8.3-11.77v15.29h8.94l-.48,.23c-.06,.03-6.4,3.12-12.71,8.67-5.81,5.12-12.78,13.43-12.99,23.99-.38,19.42-.04,36.35,0,37.92Z"/>
          </g>
        </g>
      </g>
      <g>
        <g>
          <g>
            <path class="cls-7" d="M248.33,38.01c0,1.83-.49,3.41-1.46,4.73-.97,1.32-2.22,2.35-3.74,3.1-1.53,.75-3.12,1.21-4.8,1.39,.68,1.41,1.16,2.76,1.43,4.06,.28,1.3,.41,2.75,.41,4.33,0,2.17,.08,3.73,.24,4.69,.16,.96,.51,1.49,1.07,1.56v.59c-.47,.09-1.09,.22-1.86,.37-.77,.15-1.51,.29-2.23,.41-.72,.13-1.25,.19-1.6,.19-.46,0-.93-.11-1.41-.32-.48-.21-.72-.6-.72-1.17,0-.47,.02-.94,.07-1.41,.05-.47,.07-.94,.07-1.41,0-2.13-.12-3.92-.37-5.36-.25-1.44-.55-2.65-.91-3.65-.36-1-.73-1.89-1.1-2.68-.37-.79-.68-1.59-.92-2.39-.25-.81-.37-1.75-.37-2.82,0-1.72,.35-3.19,1.05-4.4,.7-1.21,1.64-2.19,2.82-2.94,1.18-.75,2.49-1.3,3.93-1.65,1.45-.35,2.92-.52,4.42-.52,1.79,0,3.23,.4,4.33,1.21,1.1,.81,1.65,2.17,1.65,4.08Zm-6.23-.69c0-.55-.17-1.15-.5-1.78-.33-.63-.83-.95-1.49-.95-.51,0-1.06,.23-1.67,.7-.61,.47-1.13,1.16-1.55,2.07-.43,.92-.64,2.05-.64,3.41,0,.96,.11,1.83,.33,2.6,.22,.77,.55,1.57,.97,2.41,.98-.52,1.81-1.24,2.49-2.16,.68-.92,1.19-1.93,1.54-3.05,.35-1.11,.52-2.2,.52-3.26Z"/>
            <path class="cls-25" d="M289.38,64.94c-.65,.22-1.33,.41-2.05,.56-.72,.15-1.43,.23-2.12,.23s-1.37-.1-2.07-.3c-.7-.2-1.3-.53-1.8-1-.5-.47-.79-1.1-.87-1.91l-7.3,.83c-.11,.02-.23,.03-.36,.04-.13,0-.25,.01-.38,.01-.3,0-.58-.04-.85-.12-.27-.08-.51-.23-.73-.45-.19-.21-.38-.54-.56-1.01-.18-.47-.38-1.23-.6-2.3-.22-1.07-.5-2.6-.83-4.61l-.21-1.33c-.21-1.26-.49-2.2-.87-2.82-.37-.62-.92-1.03-1.65-1.23-.73-.21-1.73-.31-3.01-.31-.25,.44-.59,1.16-1.02,2.16s-.86,2.08-1.3,3.25c-.44,1.17-.82,2.26-1.13,3.26-.31,1-.46,1.74-.46,2.22s.07,.92,.21,1.28c.14,.36,.49,.59,1.04,.66l-.14,.62-4.86,.69c-.33,.05-.66,.07-.97,.07-1.79,0-2.68-.93-2.68-2.8,0-.62,.09-1.28,.28-1.98,.19-.7,.39-1.35,.59-1.93,.9-2.59,2.16-5.2,3.78-7.82,1.62-2.62,3.31-4.98,5.06-7.09l-4.81,.81-.57-7.61c-.03-.46-.15-.87-.36-1.24-.21-.37-.55-.62-1.02-.75v-.59l5.59-1.26c.32-.08,.61-.12,.88-.12,1.01,0,1.54,.49,1.59,1.47l.28,7.44,6.61-1.07c-1.03,1.34-2.03,2.72-3,4.12-.97,1.41-1.87,2.86-2.69,4.36l4.95-1.35c.35-.09,.68-.17,1-.23,.32-.05,.65-.08,1-.08,1.22,0,2.14,.69,2.77,2.06,.63,1.37,1.07,3.25,1.33,5.62,.25,2.42,.53,4.33,.84,5.72s.75,2.1,1.34,2.1c.36,0,.87-.05,1.51-.14s1.22-.18,1.74-.26c.28-.77,.79-1.36,1.52-1.77,.73-.4,1.52-.68,2.39-.84,.87-.16,1.65-.24,2.35-.24,.3,0,.61,.02,.94,.05,.32,.03,.63,.09,.91,.19-.24,.38-.45,.86-.64,1.45-.19,.59-.28,1.11-.28,1.56,0,.68,.16,1.36,.47,2.03,.32,.67,.72,1.24,1.21,1.69Z"/>
            <path class="cls-30" d="M325.31,47.75c-.38,.35-.86,.62-1.43,.83-.58,.21-1.12,.31-1.62,.31-2.97,0-4.46-1.52-4.46-4.57,0-.09,0-.19,.01-.28,0-.09,.01-.19,.01-.28l-4.79,.33-1.71,11.69c-.06,.47-.14,1-.23,1.59-.09,.59-.13,1.11-.13,1.59,0,.54,.09,1.06,.26,1.58,.17,.51,.53,.89,1.07,1.13v.78l-4.43,.83c-.25,.05-.5,.09-.73,.13-.24,.04-.49,.06-.76,.06-.92,0-1.5-.25-1.75-.76-.25-.51-.38-1.16-.38-1.97,0-.36,.02-.77,.06-1.22,.04-.45,.08-.85,.13-1.2l1.99-13.7-5.24,.4c0,1.09-.25,2.12-.76,3.08-.51,.96-1.2,1.74-2.07,2.33s-1.89,.89-3.05,.89c-.3,0-.66-.05-1.09-.14s-.76-.26-1-.5c.46-.46,.78-1.1,.97-1.93s.28-1.54,.28-2.15c0-.44,0-.9-.02-1.39-.02-.48-.09-.94-.21-1.36l12.42-.92c.09-.66,.21-1.44,.34-2.32,.13-.88,.25-1.73,.34-2.54s.14-1.41,.14-1.8c0-.73-.27-1.3-.82-1.72-.55-.42-1.13-.71-1.77-.89-1.26,.68-2.67,1.02-4.22,1.02-.35,0-.76-.04-1.23-.11s-.87-.19-1.19-.34c.47-.27,.82-.68,1.03-1.23,.21-.55,.32-1.08,.32-1.59,0-.46-.08-1-.24-1.61-.16-.62-.43-1.07-.83-1.35,.51-.21,1.13-.35,1.87-.44,.74-.09,1.38-.13,1.92-.13,.68,0,1.39,.06,2.12,.17,.73,.11,1.36,.37,1.87,.77,.51,.4,.77,1.05,.77,1.93,0,.47-.14,.91-.41,1.3-.28,.4-.6,.73-.96,1.02,.7-.05,1.46-.1,2.29-.15,.83-.05,1.61-.1,2.33-.13,.73-.03,1.27-.05,1.64-.05,.82,0,1.4,.19,1.74,.57,.34,.38,.51,.96,.51,1.75,0,.35-.06,.98-.19,1.9-.13,.92-.26,1.88-.41,2.9-.15,1.02-.27,1.86-.37,2.52l11.31-.83c-.13,.4-.21,.84-.26,1.33-.05,.49-.07,.94-.07,1.35,0,.27,.03,.65,.08,1.15,.06,.5,.16,.98,.32,1.43,.16,.46,.38,.77,.66,.95Z"/>
            <path class="cls-26" d="M356.03,46.4c-.54,.54-1.16,.87-1.87,1.01-.71,.13-1.43,.2-2.16,.2-1.72,0-2.84-.48-3.35-1.45-.51-.96-.79-2.18-.82-3.65l-3.15,.45c-1.01,1.3-2.26,2.3-3.74,3-1.49,.7-3.03,1.13-4.65,1.27,.68,1.41,1.16,2.76,1.43,4.06,.28,1.3,.41,2.75,.41,4.33,0,.43,0,.86,.01,1.29,0,.43,.01,.87,.01,1.29,0,1.11,.09,1.98,.28,2.61,.19,.63,.52,.99,1,1.07v.59c-.47,.09-1.07,.22-1.79,.37-.72,.15-1.43,.29-2.15,.41-.71,.13-1.3,.19-1.75,.19s-.93-.11-1.41-.32c-.48-.21-.72-.6-.72-1.17,0-.47,.02-.94,.07-1.41,.05-.47,.07-.94,.07-1.41,0-1.06-.05-2.16-.14-3.32-.09-1.15-.25-2.25-.45-3.28-.21-1.03-.47-1.89-.81-2.57-.28-.62-.6-1.37-.96-2.28s-.66-1.83-.92-2.8c-.26-.96-.39-1.85-.39-2.65,0-1.72,.35-3.19,1.05-4.4,.7-1.21,1.64-2.19,2.82-2.94,1.18-.75,2.49-1.3,3.93-1.65,1.45-.35,2.92-.52,4.42-.52,1.79,0,3.23,.4,4.33,1.21,1.1,.81,1.65,2.17,1.65,4.08,0,1.07-.2,2.08-.59,3.01l9.86-1.21c-.22,.44-.38,1.02-.46,1.72-.09,.7-.13,1.29-.13,1.77,0,.19,.02,.53,.07,1.02,.05,.49,.15,.95,.31,1.39,.16,.43,.39,.67,.69,.7Zm-15.98-9.08c0-.55-.17-1.15-.5-1.78-.33-.63-.83-.95-1.49-.95-.9,0-1.64,.37-2.2,1.1s-.99,1.59-1.26,2.56c-.27,.97-.4,1.81-.4,2.52,0,.96,.11,1.83,.33,2.6,.22,.77,.55,1.57,.97,2.41,.98-.52,1.81-1.24,2.49-2.16,.68-.92,1.19-1.93,1.54-3.05,.35-1.11,.52-2.2,.52-3.26Z"/>
            <path class="cls-17" d="M389.33,44.13c-.52,.35-1.15,.62-1.88,.82-.73,.2-1.42,.3-2.05,.3-1.3,0-2.43-.36-3.39-1.09-.96-.73-1.34-1.82-1.14-3.27l-1.99,.33c-.03,1.26-.36,2.36-1,3.28-.63,.92-1.34,1.85-2.13,2.78-.74,.85-1.27,1.46-1.58,1.83-.31,.36-.52,.61-.64,.75-.12,.13-.25,.28-.38,.43-.13,.15-.39,.45-.77,.89,.74-.03,1.49-.05,2.23-.05h2.23c1.19,0,2.07,.33,2.64,.98,.58,.66,.98,1.48,1.21,2.48,.23,1,.39,1.99,.49,2.99,.13,1.15,.26,2.17,.41,3.03,.15,.87,.54,1.3,1.17,1.3,.14,0,.24,0,.31-.02v.59c-.49,.09-1.1,.23-1.84,.39s-1.47,.32-2.19,.45c-.73,.13-1.35,.2-1.87,.2-1.04,0-1.69-.48-1.93-1.45-.25-.96-.47-2.47-.68-4.5-.13-1.36-.4-2.45-.83-3.28s-1.4-1.32-2.92-1.48c-1.26,1.36-2.23,2.46-2.89,3.29-.66,.84-1.11,1.51-1.35,2s-.36,.94-.36,1.32c0,.74,.15,1.25,.46,1.52,.31,.27,.8,.47,1.48,.62v.69l-4.43,.43c-.25,.02-.5,.04-.73,.08-.24,.04-.49,.06-.76,.06-.85,0-1.54-.17-2.07-.52-.53-.35-.79-1-.79-1.94,0-.84,.18-1.68,.53-2.54s.98-1.85,1.88-2.99,2.18-2.55,3.84-4.24c.54-.54,1.07-1.08,1.59-1.64,.52-.55,1.03-1.11,1.52-1.66-.68,.02-1.36,.06-2.03,.13-.67,.07-1.36,.11-2.05,.11-1.3,0-2.22-.38-2.76-1.14s-.82-1.74-.82-2.94c0-4.04,1.98-6.61,5.93-7.7l.14-3.98c.02-.28-.05-.59-.2-.91-.15-.32-.41-.48-.77-.46v-.88l5.19-.85c.24-.05,.47-.07,.71-.07,.9,0,1.33,.41,1.28,1.23l-.24,5.52c1.31,.13,2.51,.47,3.59,1.03,1.08,.56,1.76,1.56,2.03,3l9.39-1.49c-.16,.47-.28,.98-.37,1.53-.09,.55-.13,1.07-.13,1.58,0,.54,.17,1.12,.52,1.74,.35,.62,.74,1.09,1.19,1.41Zm-16.85-3.84c0-.76-.17-1.41-.51-1.96-.34-.55-.93-.82-1.77-.82-.74,0-1.34,.27-1.78,.79-.44,.53-.76,1.16-.95,1.88-.19,.73-.28,1.39-.28,1.99,0,1.04,.23,1.85,.7,2.42,.47,.57,1.24,.91,2.31,1.02,.65-.81,1.19-1.63,1.62-2.48,.43-.85,.65-1.8,.65-2.86Z"/>
            <path class="cls-9" d="M417.68,37.61c0,1.68-.36,3.06-1.08,4.15-.72,1.09-1.67,1.95-2.86,2.57-1.19,.62-2.49,1.06-3.9,1.32-1.41,.25-2.82,.4-4.21,.43,.38,1.87,.93,3.72,1.65,5.57,.72,1.85,1.51,3.62,2.38,5.31l-9.17,3.29c.09,.19,.16,.44,.19,.76,.03,.32,.05,.56,.05,.73,0,1-.34,1.84-1.03,2.52s-1.51,1.21-2.48,1.56c-.96,.36-1.86,.53-2.7,.53-.25,0-.54-.04-.87-.13-.32-.09-.59-.21-.79-.37,.19-.44,.33-.93,.41-1.47,.09-.54,.13-1.03,.13-1.49,0-.62-.05-1.24-.15-1.88-.1-.64-.23-1.25-.39-1.84,.57-.32,1.24-.6,2.01-.84,.77-.24,1.48-.37,2.11-.37,.39,0,.87,.06,1.42,.19,.55,.13,.97,.35,1.26,.66l3.93-1.35c-.74-1.34-1.48-2.88-2.2-4.61-.73-1.73-1.33-3.5-1.8-5.3s-.71-3.45-.71-4.95c0-1.83,.38-3.41,1.14-4.73,.76-1.32,1.77-2.41,3.05-3.27,1.27-.86,2.69-1.5,4.25-1.91,1.56-.41,3.15-.62,4.76-.62s2.89,.53,3.97,1.58c1.08,1.05,1.62,2.37,1.62,3.95Zm-5.83-1.26c0-.55-.12-1.08-.36-1.58s-.69-.75-1.35-.75c-.95,0-1.74,.36-2.38,1.08-.64,.72-1.15,1.62-1.52,2.7-.37,1.08-.62,2.2-.76,3.35-.13,1.15-.16,2.17-.08,3.06,1.03-.35,2.03-.92,3.02-1.73,.99-.81,1.81-1.75,2.45-2.82,.65-1.07,.97-2.18,.97-3.32Z"/>
          </g>
          <g>
            <g>
              <path class="cls-31" d="M425.52,102.03l-5.05,.73c-.3,.05-.6,.07-.9,.07-.87,0-1.41-.25-1.64-.75-.22-.5-.33-1.12-.33-1.86,0-.84,.03-1.92,.08-3.26,.05-1.33,.13-2.79,.21-4.36,.09-1.57,.17-3.14,.25-4.72,.08-1.57,.15-3.03,.2-4.38,.05-1.35,.08-2.45,.08-3.31,0-.79-.08-1.67-.25-2.63-.17-.96-.51-1.8-1.02-2.5-.51-.7-1.29-1.05-2.33-1.05-1.25,0-2.2,.62-2.84,1.87-.65,1.25-1.09,2.88-1.32,4.89-.23,2.01-.34,4.18-.34,6.51v1.83c0,.96,.03,1.7,.08,2.22,.05,.51,.22,.89,.49,1.13,.27,.24,.73,.43,1.37,.59v.64l-4.91,.92c-.21,.03-.42,.07-.64,.11-.22,.04-.44,.06-.66,.06-.17,0-.36-.01-.55-.04s-.35-.11-.47-.27c-.14-.19-.3-.42-.47-.7-.17-.28-.33-.81-.46-1.6-.13-.79-.2-2.03-.2-3.72,0-2.34,.19-4.5,.58-6.48,.39-1.98,1.06-3.71,2.03-5.18,.96-1.47,2.31-2.61,4.03-3.42,1.72-.81,3.91-1.22,6.57-1.22,1.99,0,3.52,.39,4.6,1.17,1.07,.78,1.82,1.86,2.23,3.22,.41,1.37,.62,2.93,.62,4.68,0,1.04-.03,2.33-.09,3.88-.06,1.54-.14,3.16-.23,4.86-.09,1.7-.16,3.32-.23,4.87-.06,1.55-.09,2.85-.09,3.91,0,.74,.05,1.31,.15,1.69,.1,.39,.59,.66,1.46,.82v.78Z"/>
              <path class="cls-32" d="M452.78,83.56c0,.22-.06,.44-.17,.66l-7.28,15.07c-.16,.32-.24,.62-.24,.9,0,.41,.19,.68,.57,.81v.88l-4.57,.83c-.32,.06-.66,.09-1.04,.09-.6,0-1.13-.13-1.6-.4-.47-.27-.7-.74-.7-1.42,0-.3,.05-.6,.14-.89,.09-.29,.2-.57,.31-.84l7.28-15.95h-6.71l2.44-5.74c.22-.52,.33-1.04,.33-1.56,0-.98-.24-1.56-.72-1.75-.48-.19-1.28-.28-2.38-.28-.36,0-.8,.06-1.3,.17,.05,.25,.07,.51,.07,.78,0,1.09-.29,2.09-.87,2.99-.58,.9-1.33,1.62-2.26,2.16-.93,.54-1.94,.81-3.01,.81-.27,0-.66-.03-1.19-.09-.52-.06-.89-.19-1.11-.38,.33-.47,.69-1.1,1.08-1.87,.39-.77,.58-1.45,.58-2.01,0-1.01-.26-1.92-.78-2.73,1.06-.43,2.29-.76,3.7-1,1.41-.24,2.82-.4,4.25-.5,1.43-.09,2.7-.14,3.8-.14,2.29,0,4.11,.24,5.45,.72,1.34,.48,2.01,1.19,2.01,2.12,0,.25-.14,.76-.43,1.52s-.62,1.59-1,2.49-.73,1.71-1.04,2.42c-.32,.71-.51,1.15-.59,1.3h6.07c.6,0,.9,.28,.9,.85Z"/>
              <path class="cls-5" d="M481.15,85.58c0,1.53-.15,3.07-.46,4.6-.31,1.53-.62,3.07-.92,4.61s-.46,3.1-.46,4.68c0,.33,.04,.65,.12,.96,.08,.31,.32,.5,.71,.58v.83l-4.95,.59c-.21,.02-.41,.04-.62,.06-.21,.02-.41,.04-.62,.04-.46,0-.79-.13-1-.38-.21-.25-.31-.76-.31-1.52,0-.98,.1-2.22,.3-3.71,.2-1.49,.43-3.06,.7-4.72,.27-1.65,.5-3.22,.7-4.69,.2-1.48,.3-2.69,.3-3.64,0-1.12-.23-2.07-.7-2.83-.47-.77-1.33-1.15-2.6-1.15-1.19,0-2.23,.39-3.14,1.16-.91,.77-1.66,1.71-2.24,2.81-.59,1.1-1,2.15-1.26,3.16h2.75l-2.77,9.6c-.06,.22-.15,.55-.26,.97-.11,.43-.21,.84-.31,1.23-.09,.4-.14,.67-.14,.83,0,.49,.07,.87,.21,1.15,.14,.28,.41,.48,.81,.6v.62l-4.91,.73c-.11,.02-.22,.03-.32,.04-.1,0-.21,.01-.32,.01-.82,0-1.33-.28-1.53-.83-.2-.55-.3-1.17-.3-1.85,0-2.16,.36-4.31,1.09-6.42,.73-2.12,1.77-4.02,3.13-5.71l-4.22-.14c.6-2.39,1.79-4.36,3.58-5.93-.63,.05-1.35,.1-2.16,.17-.81,.06-1.37,.09-1.71,.09-.3,0-.51-.08-.63-.25s-.18-.57-.18-1.22v-6.94c0-.49-.07-.93-.2-1.32-.13-.39-.49-.61-1.05-.68v-.57l5.69-1.61c.28-.08,.55-.12,.81-.12,.54,0,.89,.17,1.07,.52,.17,.35,.26,.75,.26,1.21v9.31c1.55-.93,3.24-1.59,5.06-1.97s3.63-.57,5.42-.57c2.65,0,4.58,.58,5.78,1.74,1.2,1.16,1.8,3.11,1.8,5.84Z"/>
            </g>
            <g>
              <path class="cls-3" d="M260.87,100.42c-.09-.39-.14-.96-.14-1.68,0-.62,.02-1.49,.06-2.62,.04-1.13,.09-2.39,.15-3.77,.06-1.38,.13-2.78,.19-4.21,.06-1.42,.11-2.74,.15-3.96,.04-1.22,.06-2.2,.06-2.96,0-1.74-.21-3.29-.62-4.66-.41-1.37-1.15-2.45-2.22-3.24-1.07-.79-2.6-1.19-4.59-1.19-1.49,0-2.95,.18-4.4,.53s-2.77,.95-3.96,1.78c-1.19,.83-2.15,1.95-2.86,3.35-.38,.74-.7,1.47-.96,2.19-.26,.72-.46,1.5-.6,2.33l-10.62,1.45c.25,.49,.45,1.06,.58,1.72,.13,.66,.2,1.25,.2,1.79,0,.6-.08,1.26-.25,1.99-.17,.73-.51,1.29-1.03,1.68,.27,.19,.6,.31,.98,.37,.39,.06,.74,.08,1.05,.08,2.04,0,3.57-.69,4.61-2.06,1.03-1.37,1.61-3,1.72-4.88l2.56-.4c-.11,1.6-.18,3.2-.2,4.81s-.04,3.22-.04,4.81c0,2.18,.07,3.86,.2,5.04,.13,1.18,.3,2.02,.49,2.52,.19,.51,.37,.85,.55,1.04,.32,.36,.77,.55,1.35,.55,.28,0,.57-.02,.85-.07l4.91-.73v-.62c-.96-.17-1.53-.7-1.69-1.58s-.25-2.27-.25-4.18v-2.16c0-3.9,.09-7.04,.26-9.42,.17-2.38,.39-4.2,.65-5.46,.26-1.26,.52-2.16,.79-2.7,.27-.54,.51-.91,.71-1.11,.28-.3,.61-.51,.97-.62,.36-.11,.74-.17,1.14-.17,1.04,0,1.82,.35,2.33,1.05,.51,.7,.85,1.54,1.01,2.5,.16,.96,.24,1.84,.24,2.63,0,.74-.03,1.76-.08,3.06-.06,1.3-.12,2.73-.2,4.3-.08,1.57-.16,3.16-.25,4.78-.09,1.61-.16,3.11-.21,4.49-.06,1.38-.08,2.52-.08,3.4,0,.74,.11,1.36,.33,1.86,.22,.5,.77,.75,1.64,.75,.3,0,.6-.02,.9-.07l5.05-.73v-.78c-.87-.16-1.35-.43-1.45-.83Z"/>
              <path class="cls-19" d="M304.6,93.14c-.9,0-1.78,.11-2.63,.32s-1.72,.34-2.61,.37l-.36-3.79c-.08-.92-.27-1.77-.58-2.57-.31-.8-.77-1.45-1.39-1.96-.62-.51-1.45-.76-2.49-.76-.76,0-1.79,.11-3.08,.33-1.3,.22-2.47,.43-3.53,.64l1.09-7.47c.08-.55,.17-1.22,.27-1.99,.1-.77,.15-1.31,.15-1.61,0-.81-.58-1.21-1.73-1.21-.16,0-.42,.02-.78,.05-.36,.03-.63,.06-.81,.09l-4.98,.73v.83c.87,.25,1.3,.85,1.3,1.78,0,.22-.04,.7-.13,1.43-.09,.73-.2,1.6-.33,2.6-.13,1-.27,2-.41,3.01-.14,1.01-.27,1.9-.38,2.68-2.91,0-5.46,.49-7.66,1.46-2.2,.97-3.91,2.45-5.13,4.42-1.23,1.98-1.84,4.48-1.84,7.51,0,.92,.19,1.61,.58,2.09,.39,.47,1.05,.71,1.98,.71,.38,0,.74-.02,1.09-.07l4.76-.64v-.76c-.65-.08-.97-.99-.97-2.73,0-1.14,.11-2.29,.32-3.46,.21-1.17,.58-2.24,1.09-3.22,.51-.98,1.22-1.78,2.11-2.39,.89-.62,2.01-.96,3.35-1.02l-1.42,9.6c-.06,.43-.13,.96-.2,1.61-.07,.65-.11,1.13-.11,1.45,0,.73,.28,1.19,.84,1.37,.56,.19,1.13,.28,1.72,.28,.65,0,1.59-.06,2.83-.19,1.24-.13,2.37-.24,3.38-.36v-.76c-.57-.05-1.01-.27-1.32-.68s-.46-.89-.46-1.46c0-.66,.05-1.31,.14-1.94l1.4-10.1c1.31,0,2.41,.3,3.28,.89,.88,.59,1.35,1.59,1.43,3l.52,9.41c.05,.77,.29,1.33,.72,1.67,.43,.34,1.02,.51,1.77,.51,.84,0,1.66-.11,2.47-.32s1.62-.32,2.44-.32h2.51c.95,0,1.89-.16,2.83-.49,.94-.32,1.72-.83,2.35-1.51,.62-.68,.94-1.56,.94-2.65,0-2.95-1.45-4.43-4.36-4.43Zm-2.51,6.57c-.28,.62-.73,.92-1.33,.92-.47,0-.77-.17-.9-.5-.13-.33-.2-.69-.21-1.07-.02-.6-.04-1.2-.08-1.81-.04-.61-.08-1.21-.11-1.81,.19-.03,.37-.05,.56-.05h.56c.69,0,1.19,.29,1.49,.88,.3,.59,.45,1.18,.45,1.78,0,.49-.14,1.04-.43,1.66Z"/>
              <path class="cls-2" d="M344.25,88.4c-1.3,.13-2.6,.27-3.91,.43-1.31,.16-2.61,.36-3.89,.62-2.04,.4-3.84,.96-5.42,1.68-1.57,.73-2.82,1.77-3.76,3.12-.93,1.35-1.45,3.17-1.56,5.46-1.45,0-2.61-.16-3.47-.49-.86-.32-1.29-1.23-1.29-2.71s.34-2.93,1.02-4.2c.68-1.26,1.56-2.45,2.64-3.54,1.08-1.1,2.22-2.16,3.42-3.18,1.2-1.02,2.34-2.04,3.42-3.06,1.08-1.02,1.96-2.08,2.64-3.18,.68-1.1,1.02-2.28,1.02-3.54,0-.55-.07-1.09-.2-1.6-.13-.51-.55-.77-1.24-.77-.51,0-.95,.03-1.33,.09l-5.29,.92v.88c.32,.02,.52,.15,.6,.39,.09,.25,.13,.49,.13,.72,0,1.01-.35,2.01-1.05,3.01-.7,1-1.61,2-2.73,3.01-1.11,1.01-2.3,2.05-3.56,3.13-1.26,1.07-2.44,2.2-3.56,3.38-1.11,1.18-2.02,2.43-2.73,3.76-.7,1.33-1.05,2.76-1.05,4.29,0,1.87,.62,3.3,1.85,4.31,1.23,1.01,2.73,1.52,4.5,1.52,1.52,0,2.96-.23,4.34-.69l9.08-2.96c0-.62,0-1.23,.01-1.85,0-.62,.04-1.23,.11-1.85,.17-1.64,.62-2.76,1.33-3.34,.71-.58,1.86-.94,3.46-1.07-.02,1.61,.41,2.78,1.28,3.52,.87,.73,2.07,1.1,3.6,1.1,.39,0,.9-.04,1.52-.13,.62-.09,1.1-.24,1.45-.46-.63-1.01-1.02-2.1-1.17-3.26-.15-1.16-.23-2.32-.23-3.47Z"/>
              <path class="cls-4" d="M376.05,102.63c-.29-.66-.44-1.42-.44-2.29,0-.43,.05-.87,.15-1.33,.1-.46,.33-.83,.68-1.11-.21-.09-.47-.16-.79-.19-.32-.03-.6-.05-.82-.05-.71,0-1.5,.08-2.37,.25-.87,.17-1.67,.45-2.41,.87-.73,.41-1.26,1-1.58,1.75-.44,.03-.89,.07-1.34,.12s-.9,.07-1.34,.07c-.22,0-.37-.12-.44-.37-.07-.24-.1-.45-.08-.6l1.07-12.68c.41,.06,.83,.12,1.26,.18,.43,.06,.84,.08,1.26,.08,1.52,0,2.95-.36,4.31-1.09,1.36-.73,2.47-1.71,3.33-2.96,.86-1.25,1.29-2.65,1.29-4.22,0-1.91-.57-3.54-1.71-4.89-1.14-1.35-2.7-2.03-4.69-2.03-1.34,0-2.68,.17-4.02,.51-1.34,.34-2.7,.51-4.09,.51-1.58,0-3.18,.18-4.81,.53-1.63,.36-3.13,.92-4.5,1.71s-2.48,1.8-3.32,3.06c-.84,1.26-1.26,2.78-1.26,4.59s.47,3.37,1.42,4.52c.95,1.15,2.39,1.72,4.31,1.72,.85,0,1.68-.14,2.49-.43s1.57-.65,2.3-1.09l-.95,10.36c-.02,.27-.04,.66-.07,1.16-.03,.51-.05,.89-.05,1.16,0,.98,.22,1.63,.66,1.94,.44,.32,1.13,.47,2.06,.47,.82,0,1.88-.08,3.19-.24,1.3-.16,2.51-.29,3.61-.4,.16,1.39,.63,2.3,1.42,2.73,.79,.43,1.82,.64,3.08,.64,.84,0,1.66-.09,2.48-.28,.81-.19,1.58-.52,2.29-1-.77-.46-1.31-1.02-1.6-1.67Zm-8.73-28.12c.2-.03,.41-.06,.6-.09,.2-.03,.4-.05,.6-.05,.93,0,1.58,.37,1.96,1.1,.37,.73,.56,1.5,.56,2.29,0,.4-.04,1.01-.12,1.85-.08,.84-.22,1.71-.41,2.61-.2,.9-.49,1.67-.88,2.31-.39,.64-.89,.96-1.51,.96-.54,0-1.08-.05-1.64-.14l.83-10.83Zm-7.25,11.5c-.27,.13-.6,.27-1.01,.44s-.76,.25-1.08,.25c-.52,0-.91-.21-1.17-.64s-.44-.91-.52-1.46c-.09-.55-.13-1.01-.13-1.39,0-1.07,.12-2.23,.37-3.47,.24-1.24,.71-2.33,1.41-3.26,.69-.93,1.7-1.46,3.01-1.59l-.88,11.12Z"/>
            </g>
          </g>
        </g>
        <g>
          <g>
            <path class="cls-11" d="M399.21,119.26h6.15c3.04,0,4.9,1.59,4.9,4.16,0,1.71-.76,2.94-2.22,3.55,1.63,.53,2.45,1.75,2.45,3.55,0,2.64-1.84,4.18-5.03,4.18h-6.25v-15.45Zm2.7,2.39v4.21h3.28c1.48,0,2.3-.78,2.3-2.16s-.85-2.05-2.37-2.05h-3.21Zm0,6.49v4.18h3.44c1.52,0,2.37-.74,2.37-2.13,0-1.31-.87-2.05-2.37-2.05h-3.44Z"/>
            <path class="cls-11" d="M417.6,134.71l5.58-15.45h2.77l5.58,15.45h-2.85l-1.25-3.57h-5.77l-1.25,3.57h-2.81Zm4.86-5.85h4.18l-1.77-4.99c-.13-.4-.27-.87-.32-1.18-.06,.3-.19,.76-.34,1.18l-1.75,4.99Z"/>
            <path class="cls-11" d="M439.81,134.71v-15.45h2.68l7.25,10.95v-10.95h2.66v15.45h-2.66l-7.27-10.95v10.95h-2.66Z"/>
            <path class="cls-11" d="M464.85,127.38l6.25-8.11h3.19l-5.11,6.59,5.18,8.85h-3.13l-3.82-6.57-2.56,3.28v3.3h-2.7v-15.45h2.7v8.11Z"/>
          </g>
          <g>
            <path class="cls-11" d="M230.5,134.71v-15.45h2.68l7.25,10.95v-10.95h2.66v15.45h-2.66l-7.27-10.95v10.95h-2.66Z"/>
            <path class="cls-11" d="M251.36,134.71l5.58-15.45h2.77l5.58,15.45h-2.85l-1.25-3.57h-5.77l-1.25,3.57h-2.81Zm4.86-5.85h4.18l-1.77-4.99c-.13-.4-.27-.87-.32-1.18-.06,.3-.19,.76-.34,1.18l-1.75,4.99Z"/>
            <path class="cls-11" d="M270.85,119.26h11.75v2.49h-4.52v12.95h-2.7v-12.95h-4.52v-2.49Z"/>
            <path class="cls-11" d="M293.71,134.71h-2.7v-15.45h2.7v15.45Z"/>
            <path class="cls-11" d="M310.03,134.96c-4.42,0-7.46-3.28-7.46-7.99s3.06-7.99,7.48-7.99,7.5,3.28,7.5,7.99-3.09,7.99-7.52,7.99Zm.02-13.38c-2.83,0-4.65,2.09-4.65,5.39s1.82,5.39,4.65,5.39,4.65-2.13,4.65-5.39-1.82-5.39-4.65-5.39Z"/>
            <path class="cls-11" d="M326.38,134.71v-15.45h2.68l7.25,10.95v-10.95h2.66v15.45h-2.66l-7.27-10.95v10.95h-2.66Z"/>
            <path class="cls-11" d="M347.24,134.71l5.58-15.45h2.77l5.58,15.45h-2.85l-1.25-3.57h-5.77l-1.25,3.57h-2.81Zm4.86-5.85h4.18l-1.77-4.99c-.13-.4-.27-.87-.32-1.18-.06,.3-.19,.76-.34,1.18l-1.75,4.99Z"/>
            <path class="cls-11" d="M372.16,132.22h6.47v2.49h-9.17v-15.45h2.7v12.95Z"/>
          </g>
        </g>
        <g>
          <g>
            <path class="cls-11" d="M236.18,143.89c-4.42,0-7.48,3.3-7.48,7.99s3.04,7.99,7.46,7.99,7.52-3.3,7.52-7.99-3.08-7.99-7.5-7.99Zm0,13.38c-2.83,0-4.65-2.09-4.65-5.39s1.82-5.39,4.65-5.39,4.65,2.09,4.65,5.39-1.82,5.39-4.65,5.39Z"/>
            <polygon class="cls-11" points="252.54 159.61 255.24 159.61 255.24 153.29 260.99 153.29 260.99 150.86 255.24 150.86 255.24 146.66 262.09 146.66 262.09 144.16 252.54 144.16 252.54 159.61"/>
          </g>
          <g>
            <polygon class="cls-11" points="282.91 159.61 292.5 159.61 292.5 157.12 285.61 157.12 285.61 153.02 291.78 153.02 291.78 150.63 285.61 150.63 285.61 146.66 292.5 146.66 292.5 144.16 282.91 144.16 282.91 159.61"/>
            <polygon class="cls-11" points="300.43 146.66 304.95 146.66 304.95 159.61 307.66 159.61 307.66 146.66 312.18 146.66 312.18 144.16 300.43 144.16 300.43 146.66"/>
            <polygon class="cls-11" points="330.12 150.54 323.27 150.54 323.27 144.16 320.57 144.16 320.57 159.61 323.27 159.61 323.27 153.06 330.12 153.06 330.12 159.61 332.82 159.61 332.82 144.16 330.12 144.16 330.12 150.54"/>
            <rect class="cls-11" x="342.59" y="144.16" width="2.7" height="15.45"/>
            <path class="cls-11" d="M361.63,143.89c-4.42,0-7.48,3.3-7.48,7.99s3.04,7.99,7.46,7.99,7.52-3.3,7.52-7.99-3.09-7.99-7.5-7.99Zm0,13.38c-2.83,0-4.65-2.09-4.65-5.39s1.82-5.39,4.65-5.39,4.65,2.09,4.65,5.39-1.82,5.39-4.65,5.39Z"/>
            <path class="cls-11" d="M384.09,144.16h-6.11v15.45h2.7v-5.33h3.4c3.09,0,5.11-2.09,5.11-5.07s-2.01-5.05-5.11-5.05Zm-.57,7.71h-2.83v-5.3h2.87c1.8,0,2.81,.93,2.81,2.62s-.99,2.68-2.85,2.68Z"/>
            <rect class="cls-11" x="397.83" y="144.16" width="2.7" height="15.45"/>
            <path class="cls-11" d="M417.17,144.16h-2.77l-5.58,15.45h2.81l1.25-3.57h5.77l1.25,3.57h2.85l-5.58-15.45Zm-3.49,9.59l1.75-4.99c.15-.42,.27-.89,.34-1.18,.04,.32,.19,.78,.32,1.18l1.77,4.99h-4.18Z"/>
          </g>
        </g>
      </g>
    </g>
  </g>
</svg>