<?xml version="1.0" encoding="UTF-8"?>
<svg id="Layer_2" data-name="Layer 2" xmlns="http://www.w3.org/2000/svg" xmlns:xlink="http://www.w3.org/1999/xlink" viewBox="0 0 446.33 446.33">
  <defs>
    <style>
      .cls-1 {
        fill: url(#linear-gradient-2);
      }

      .cls-2 {
        font-size: 24px;
      }

      .cls-2, .cls-3, .cls-4, .cls-5, .cls-6, .cls-7 {
        fill: #998875;
      }

      .cls-2, .cls-6, .cls-7 {
        font-family: Satoshi-Bold, Satoshi;
      }

      .cls-3 {
        font-size: 30px;
      }

      .cls-3, .cls-4 {
        font-family: AbyssinicaSIL-Regular, 'Abyssinica SIL';
      }

      .cls-8 {
        fill: #0e1d23;
      }

      .cls-9 {
        clip-path: url(#clippath-2);
      }

      .cls-4 {
        font-size: 30px;
      }

      .cls-10 {
        clip-path: url(#clippath-1);
      }

      .cls-11 {
        clip-path: url(#clippath-4);
      }

      .cls-12 {
        fill: #131e2a;
      }

      .cls-13 {
        stroke: #0e1d23;
        stroke-miterlimit: 10;
        stroke-width: .57px;
      }

      .cls-13, .cls-14 {
        fill: none;
      }

      .cls-15 {
        fill: url(#linear-gradient-5);
      }

      .cls-16 {
        clip-path: url(#clippath);
      }

      .cls-17 {
        clip-path: url(#clippath-3);
      }

      .cls-18 {
        fill: url(#linear-gradient-3);
      }

      .cls-6 {
        font-size: 24px;
      }

      .cls-19 {
        fill: url(#linear-gradient);
      }

      .cls-20 {
        fill: url(#linear-gradient-4);
      }

      .cls-7 {
        font-size: 24px;
      }
    </style>
    <clipPath id="clippath">
      <polygon class="cls-14" points="250.25 212.86 250.26 212.89 250.26 212.83 250.25 212.86"/>
    </clipPath>
    <linearGradient id="linear-gradient" x1="-8001.95" y1="106.67" x2="-8000.95" y2="106.67" gradientTransform="translate(2090687.82 -27479.33) scale(261.26)" gradientUnits="userSpaceOnUse">
      <stop offset="0" stop-color="#856c2a"/>
      <stop offset=".04" stop-color="#8c722f"/>
      <stop offset=".11" stop-color="#a2823d"/>
      <stop offset=".19" stop-color="#c69d55"/>
      <stop offset=".28" stop-color="#f6c376"/>
      <stop offset=".29" stop-color="#fec97b"/>
      <stop offset=".33" stop-color="#f0bc72"/>
      <stop offset=".4" stop-color="#cd9d5b"/>
      <stop offset=".5" stop-color="#946935"/>
      <stop offset=".57" stop-color="#694219"/>
      <stop offset=".6" stop-color="#744a18"/>
      <stop offset=".66" stop-color="#936118"/>
      <stop offset=".73" stop-color="#c58717"/>
      <stop offset=".8" stop-color="#fbaf17"/>
      <stop offset=".83" stop-color="#f5ab17"/>
      <stop offset=".87" stop-color="#e7a018"/>
      <stop offset=".9" stop-color="#ce8f19"/>
      <stop offset=".95" stop-color="#ac771c"/>
      <stop offset=".99" stop-color="#80591f"/>
      <stop offset="1" stop-color="#745020"/>
    </linearGradient>
    <clipPath id="clippath-1">
      <path class="cls-14" d="M140.98,220.13v95.85h20.51v-103.17c0-11.16,9.05-20.21,20.21-20.21s20.21,9.05,20.21,20.21v103.17h20.51v-95.85c0-22.49-18.23-40.72-40.72-40.72s-40.72,18.23-40.72,40.72"/>
    </clipPath>
    <linearGradient id="linear-gradient-2" x1="-8018.45" y1="87.51" x2="-8017.45" y2="87.51" gradientTransform="translate(13335180.07 145784.98) scale(1663.09 -1663.09)" xlink:href="#linear-gradient"/>
    <clipPath id="clippath-2">
      <path class="cls-14" d="M109.73,267.83h0v36.59s18.4-5.43,23-28.43h11.32v-8.15h-34.31Z"/>
    </clipPath>
    <linearGradient id="linear-gradient-3" x1="-8019.55" y1="90.9" x2="-8018.55" y2="90.9" gradientTransform="translate(13336816.57 -150881.79) scale(1663.06)" xlink:href="#linear-gradient"/>
    <clipPath id="clippath-3">
      <path class="cls-14" d="M229.74,220.13v47.69h20.52v-54.97s0-.03,0-.03v-.02c0-11.16,9.05-20.21,20.21-20.21s20.21,9.05,20.21,20.21v103.17h20.51v-95.85c0-22.49-18.23-40.72-40.72-40.72s-40.72,18.23-40.72,40.72"/>
    </clipPath>
    <linearGradient id="linear-gradient-4" x1="-8018.45" y1="87.51" x2="-8017.45" y2="87.51" gradientTransform="translate(13335195.07 145784.96) scale(1663.09 -1663.09)" xlink:href="#linear-gradient"/>
    <clipPath id="clippath-4">
      <path class="cls-14" d="M212.53,147.64h20.28s-60.29,29.09-61.25,77.89c-.97,48.81,0,90.45,0,90.45h16.82v-97.92s1.89-24.45,25.98-30.83c9.79-2.59,20.24-1.3,29.16,3.49,8.02,4.31,16.63,15.51,16.34,28.65-.43,19.86-.16,63.12-.05,79.95,.05,7.72,6.02,14.17,13.73,14.7,3.86,.26,8.76-.28,14.97-2.22,24.44-7.62,31.27-12.61,31.27-12.61l12.62,15.24,2.37,1.56v-27.58s-38.11,18.4-50.99,16.03c0,0-7.26,.31-7.01-7.5,.25-7.81,0-56.89,0-77.03,0-4.99-2.72-33.15-36.35-42.04h0s-10.37-3.97-28.24-.77c4.18-5.03,26.5-31.11,46.26-38.22h-25.63s-10.82-27.51-20.28-28.21v36.97Z"/>
    </clipPath>
    <linearGradient id="linear-gradient-5" x1="-8019.55" y1="90.9" x2="-8018.55" y2="90.9" gradientTransform="translate(13336819.27 -150958.57) scale(1663.06)" xlink:href="#linear-gradient"/>
  </defs>
  <g id="Layer_1-2" data-name="Layer 1">
    <circle class="cls-12" cx="223.17" cy="223.17" r="223.17"/>
    <g>
      <text class="cls-6" transform="translate(145.69 59.36) rotate(-23.94)"><tspan x="0" y="0"> </tspan></text>
      <text class="cls-2" transform="translate(251.88 44.51) rotate(10.07)"><tspan x="0" y="0"> </tspan></text>
      <text class="cls-7" transform="translate(309.19 63.75) rotate(29.17)"><tspan x="0" y="0"> </tspan></text>
      <text class="cls-3" transform="translate(184.13 419.27) rotate(9.32)"><tspan x="0" y="0"> </tspan></text>
      <text class="cls-4" transform="translate(349.15 377.72) rotate(-41.58)"><tspan x="0" y="0"> </tspan></text>
      <g>
        <g>
          <polygon class="cls-5" points="27.73 179.62 39.9 182.2 26.03 187.68 25.4 190.66 42.57 194.29 43.19 191.33 31.03 188.76 44.9 183.25 45.53 180.29 28.36 176.67 27.73 179.62"/>
          <path class="cls-5" d="M33.67,159.29l14.39,11.87,1.07-3.01-3.34-2.7,2.21-6.17,4.3,.03,1.09-3.05-18.66,.06-1.06,2.96Zm5.57-.05h6.01s-1.6,4.48-1.6,4.48l-4.67-3.78c-.39-.32-.84-.63-1.13-.81,.35,.08,.91,.09,1.39,.11Z"/>
          <polygon class="cls-5" points="48.64 131.96 46.1 130.71 40.19 142.68 42.73 143.93 45.01 139.33 58.2 145.84 59.56 143.08 46.36 136.57 48.64 131.96"/>
          <rect class="cls-5" x="58.53" y="115.49" width="3.07" height="17.55" transform="translate(-77.19 109.82) rotate(-58.19)"/>
          <path class="cls-5" d="M77.39,100.23c-4.22-3.3-9.3-2.83-12.4,1.12-3.09,3.95-2.29,9,1.91,12.28,4.21,3.3,9.28,2.87,12.37-1.08,3.11-3.97,2.32-9.04-1.88-12.32Zm-.43,10.48c-1.98,2.53-5.12,2.7-8.07,.39-2.95-2.31-3.55-5.4-1.57-7.93,1.98-2.53,5.12-2.7,8.07-.39,2.91,2.28,3.55,5.4,1.57,7.93Z"/>
          <polygon class="cls-5" points="87.13 77.72 95.75 86.68 81.2 83.43 79 85.54 91.17 98.18 93.35 96.09 84.73 87.13 99.3 90.36 101.48 88.27 89.31 75.62 87.13 77.72"/>
          <path class="cls-5" d="M103.47,64.22l5.24,17.91,2.58-1.88-1.25-4.11,5.29-3.87,3.54,2.44,2.62-1.91-15.47-10.43-2.54,1.85Zm4.64,3.09l4.97,3.38-3.84,2.8-1.73-5.75c-.15-.49-.34-1-.48-1.31,.25,.26,.7,.59,1.08,.87Z"/>
          <polygon class="cls-5" points="130.87 63.87 123.67 51.04 121 52.54 129.57 67.84 138.66 62.75 137.27 60.28 130.87 63.87"/>
          <path class="cls-5" d="M166.91,41.84c1.36-1.18,1.74-2.77,1.13-4.62-.92-2.78-3.48-3.83-6.77-2.75l-6.63,2.18,5.49,16.67,6.75-2.22c3.44-1.13,4.88-3.45,3.94-6.3-.64-1.94-1.96-2.97-3.91-2.96Zm-7.01,.97l-1.49-4.54,3.47-1.14c1.64-.54,2.81-.07,3.28,1.37,.49,1.48-.12,2.62-1.72,3.14l-3.53,1.16Zm6.01,5.75l-3.72,1.22-1.49-4.51,3.72-1.22c1.62-.53,2.82-.04,3.28,1.37,.5,1.5-.15,2.6-1.8,3.14Z"/>
          <path class="cls-5" d="M183.04,28.75l-2.85,18.44,3.13-.61,.61-4.25,6.43-1.26,2.17,3.71,3.18-.62-9.58-16.01-3.08,.6Zm1.29,10.85l.87-5.94c.07-.5,.11-1.05,.12-1.39,.12,.34,.38,.83,.61,1.25l3.07,5.17-4.66,.91Z"/>
          <polygon class="cls-5" points="215.33 24.83 216.08 37.24 207.12 25.32 204.07 25.5 205.12 43.01 208.14 42.83 207.4 30.42 216.38 42.34 219.4 42.16 218.35 24.65 215.33 24.83"/>
          <polygon class="cls-5" points="241.99 25.56 234.22 34.22 234.9 25.03 231.84 24.81 230.54 42.3 233.61 42.53 233.88 38.8 237.05 35.3 240.84 43.06 244.38 43.33 239.25 32.86 245.6 25.82 241.99 25.56"/>
          <path class="cls-5" d="M279.51,32.48c-4.81-1.41-9.21,1.2-10.71,6.31-1.51,5.14,.76,9.68,5.58,11.09,4.84,1.42,9.25-1.19,10.75-6.3,1.51-5.14-.81-9.69-5.62-11.1Zm2.51,10.19c-1.04,3.55-3.7,5.29-6.79,4.39-3.09-.91-4.4-3.77-3.34-7.36,1.05-3.59,3.7-5.29,6.79-4.39,3.09,.91,4.4,3.77,3.35,7.36Z"/>
          <polygon class="cls-5" points="292.1 55.71 294.91 56.95 297.8 50.38 303.77 53.01 304.89 50.48 298.91 47.85 300.83 43.48 307.95 46.61 309.09 44.02 299.16 39.65 292.1 55.71"/>
          <polygon class="cls-5" points="322.72 71.69 331.63 77.96 333.26 75.65 326.86 71.14 329.54 67.33 335.27 71.37 336.83 69.15 331.1 65.12 333.7 61.43 340.1 65.93 341.73 63.61 332.82 57.34 322.72 71.69"/>
          <polygon class="cls-5" points="360.46 79.07 350.43 70.26 348.56 72.39 352.42 75.78 342.71 86.84 345.02 88.87 354.73 77.81 358.59 81.2 360.46 79.07"/>
          <polygon class="cls-5" points="376.04 95.56 370.6 100.36 365.46 94.52 370.9 89.73 368.86 87.43 355.71 99.03 357.74 101.34 363.32 96.41 368.46 102.25 362.88 107.17 364.91 109.47 378.07 97.87 376.04 95.56"/>
          <rect class="cls-5" x="370.86" y="113.03" width="17.55" height="3.07" transform="translate(3.44 239.96) rotate(-35.23)"/>
          <path class="cls-5" d="M398.8,128.09c-2.42-4.39-7.38-5.63-12.05-3.06-4.69,2.58-6.28,7.41-3.85,11.8,2.43,4.41,7.41,5.67,12.07,3.1,4.69-2.58,6.25-7.45,3.83-11.84Zm-13.3,7.34c-1.55-2.82-.47-5.77,2.81-7.58,3.28-1.81,6.36-1.15,7.91,1.67,1.55,2.82,.47,5.77-2.81,7.58-3.24,1.79-6.36,1.15-7.91-1.67Z"/>
          <path class="cls-5" d="M407.02,161.03c3.2-1.24,4.52-4.2,3.24-7.49l-2.51-6.47-16.35,6.36,1.11,2.86,5.64-2.19,1.4,3.6c1.27,3.27,4.32,4.55,7.47,3.33Zm-.71-10.1l1.18,3.04c.74,1.9,.17,3.36-1.62,4.05-1.79,.7-3.25,.05-4.01-1.92l-1.17-3,5.62-2.18Z"/>
          <rect class="cls-5" x="398.94" y="172.34" width="17.55" height="3.07" transform="translate(-31.64 115.27) rotate(-15.5)"/>
          <path class="cls-5" d="M420.41,190.17l-18.36-3.32,.53,3.15,4.24,.72,1.09,6.46-3.76,2.07,.54,3.19,16.24-9.18-.53-3.1Zm-4.84,2.77l-5.25,2.93-.79-4.69,5.92,1.02c.5,.09,1.05,.14,1.39,.15-.35,.11-.84,.36-1.27,.58Z"/>
        </g>
        <g>
          <path class="cls-5" d="M54.01,305.15c.81,.67,1.71,1.1,2.71,1.31,.99,.21,2,.08,3.03-.39,1.08-.49,1.7-1.15,1.87-1.97,.17-.82,.03-1.74-.43-2.74-.38-.84-.86-1.63-1.43-2.35-.57-.72-1.21-1.32-1.94-1.79-.72-.47-1.52-.75-2.38-.83-.86-.08-1.78,.09-2.74,.53-.6,.28-1.1,.59-1.49,.93-.39,.34-.76,.72-1.11,1.13-.35,.41-.76,.85-1.22,1.31-.47,.46-1.07,.94-1.82,1.45-.75,.51-1.72,1.03-2.92,1.58-.27,.12-.54,.23-.81,.32-.27,.09-.54,.2-.81,.32-.32,.15-.48,.38-.47,.71s.06,.62,.18,.88c.09,.2,.26,.48,.52,.85,.26,.37,.52,.75,.81,1.15,.28,.39,.51,.71,.68,.95l.33-.15c-.1-.33,.1-.66,.61-1,.5-.34,1.36-.78,2.58-1.34,.89-.41,1.66-.85,2.33-1.34,.66-.49,1.3-1.11,1.92-1.85,.53,.9,1.2,1.68,2.01,2.34Zm-.29-4.32c.37-.32,.83-.6,1.37-.85,.76-.35,1.46-.52,2.08-.52,.62,0,1.15,.12,1.56,.34,.42,.22,.69,.48,.82,.76,.17,.37,.12,.73-.15,1.08s-.56,.59-.87,.74c-.6,.27-1.25,.45-1.97,.54-.72,.09-1.42,.06-2.11-.08-.69-.15-1.31-.43-1.85-.85,.36-.46,.73-.84,1.1-1.16Z"/>
          <path class="cls-5" d="M71.73,318.96l-2.57-2.44-.3,.2c.1,.29,.09,.55-.03,.78-.12,.23-.29,.44-.52,.61l-3.71,2.91,2.07,2.19c-1.68-.18-3.48-.23-5.38-.16-1.9,.07-3.68,.32-5.32,.75-.37,.1-.77,.22-1.2,.36-.43,.14-.8,.32-1.11,.53-.96,.64-1.13,1.42-.52,2.34,.11,.16,.23,.32,.37,.47l2.02,2.26,.37-.14c-.15-.31-.16-.57-.02-.76s.33-.38,.58-.55c.24-.16,.68-.34,1.3-.53,.62-.19,1.31-.37,2.06-.54,.75-.17,1.46-.32,2.12-.45s1.14-.2,1.46-.22c.44,.66,.73,1.21,.88,1.65s.12,.87-.07,1.27c-.19,.4-.57,.87-1.15,1.41l-.61,.57c-.92,.86-1.61,1.53-2.08,2.01-.47,.48-.8,.85-.97,1.1-.18,.25-.29,.46-.33,.63-.04,.19-.03,.37,.02,.53,.05,.17,.13,.32,.23,.48,.04,.06,.09,.13,.14,.19,.05,.06,.09,.12,.14,.17l2.94,3.46c-.39,.32-.61,.68-.68,1.1-.07,.42-.03,.84,.11,1.27,.14,.43,.33,.82,.56,1.17,.24,.36,.52,.69,.84,1.01,.33,.32,.66,.6,.99,.86,.07-.41,.22-.81,.45-1.2,.23-.39,.53-.71,.88-.94,.24-.16,.54-.29,.9-.39,.37-.1,.69-.16,.96-.17-.05-.18-.12-.36-.22-.53-.09-.18-.19-.34-.3-.5-.24-.36-.55-.73-.93-1.12-.38-.39-.8-.71-1.25-.94-.46-.23-.93-.29-1.43-.17-.22-.24-.46-.51-.73-.8-.27-.3-.47-.54-.59-.72-.2-.3,0-.77,.62-1.41,.61-.64,1.49-1.44,2.65-2.4,1.13-.95,1.94-1.82,2.43-2.61,.49-.8,.52-1.51,.11-2.13-.12-.18-.25-.34-.38-.48-.14-.14-.29-.29-.46-.43l-2.4-2.08c1.05-.09,2.11-.13,3.16-.12,1.06,.02,2.11,.06,3.15,.12l-2.82-3.03,3.72-2.71c.49-.36,.56-.8,.21-1.32-.09-.14-.21-.27-.36-.41Z"/>
          <path class="cls-5" d="M95.91,357.16c.51-.38,.99-.75,1.45-1.09,.46-.35,.76-.6,.91-.75,.34-.35,.52-.68,.54-.99s-.16-.65-.52-1.01c-.16-.16-.41-.39-.74-.69s-.69-.62-1.08-.96c-.39-.34-.75-.65-1.07-.93,.28,.03,.57,.02,.86-.03s.54-.18,.75-.39c.39-.39,.55-.78,.5-1.18-.05-.4-.21-.78-.49-1.15-.27-.37-.56-.7-.86-1-.24-.23-.54-.49-.9-.78-.36-.28-.7-.49-1.01-.62,.05,.3-.03,.62-.22,.95-.2,.34-.4,.61-.6,.81-.22,.22-.5,.41-.83,.56s-.66,.18-.99,.09c.07,.21,.19,.43,.37,.67s.34,.43,.49,.58c.68,.67,1.44,1.14,2.29,1.39,.2,.35,.33,.74,.39,1.16,.06,.42-.07,.79-.39,1.11-.17,.17-.45,.42-.85,.73-.39,.31-.81,.63-1.26,.96-.44,.33-.83,.62-1.16,.87l-5.85-5c-.13,.24-.3,.47-.5,.69-.2,.22-.4,.42-.59,.62-.26,.26-.61,.54-1.06,.82s-.87,.42-1.27,.42c0,.21,.07,.42,.22,.65,.15,.23,.29,.41,.42,.54,.51,.5,1.08,.81,1.72,.94,.64,.12,1.28,.08,1.93-.12,.64-.2,1.2-.54,1.67-1.02l2.47,2.1-6.84,5.14c-.17,.13-.36,.29-.58,.47-.21,.18-.4,.35-.56,.51-.35,.35-.58,.7-.69,1.03s.04,.7,.44,1.1c.12,.12,.24,.22,.36,.3,.12,.09,.25,.17,.38,.26l2.3,1.57,.34-.34c-.13-.34-.12-.66,.02-.96,.15-.3,.34-.57,.57-.8,.21-.21,.46-.42,.75-.64,.29-.22,.56-.42,.79-.6l5.84-4.38,2.24,1.94s-.08,.08-.13,.12c-.04,.04-.09,.08-.13,.12-1.33,1.34-1.34,2.65-.04,3.95,.22,.22,.5,.41,.85,.57s.67,.25,.99,.26c-.05-.2,0-.43,.12-.71,.13-.27,.29-.53,.48-.77s.35-.42,.46-.54c.18-.18,.39-.37,.62-.56,.23-.19,.47-.35,.69-.47l-5.32-4.56c.33-.25,.75-.57,1.26-.95Z"/>
          <path class="cls-5" d="M120.3,375.55c.68-.96,.89-1.85,.62-2.65s-.85-1.52-1.75-2.15c-.76-.54-1.56-.97-2.42-1.31-.85-.34-1.71-.53-2.57-.57-.86-.04-1.69,.12-2.47,.48-.79,.36-1.49,.97-2.1,1.84-.29,.41-.54,.9-.75,1.48-.21,.58-.39,1.16-.53,1.74-.14,.58-.25,1.08-.33,1.49-.08,.46-.25,.99-.51,1.59-.27,.6-.58,1.2-.94,1.82-.36,.62-.73,1.19-1.11,1.73-.17,.24-.35,.47-.54,.69-.19,.22-.37,.45-.54,.69-.2,.29-.22,.57-.05,.85,.17,.28,.37,.5,.6,.66,.23,.16,.55,.34,.95,.53,.4,.19,.81,.38,1.23,.56,.42,.18,.76,.33,1.03,.45l.21-.3c-.21-.21-.25-.51-.12-.89,.13-.39,.39-.86,.79-1.42,.15-.22,.3-.43,.46-.66,.15-.22,.3-.44,.45-.66,.56-.8,1.01-1.57,1.33-2.33,.33-.76,.57-1.61,.73-2.56,.86,.5,1.8,.84,2.8,1.02,1,.18,1.99,.12,2.96-.18l1.75,.9c-.51,.75-.8,1.46-.89,2.13-.08,.67,.31,1.31,1.18,1.93,.37,.26,.75,.48,1.16,.67,.41,.19,.84,.24,1.3,.16-.14-.12-.17-.32-.1-.6,.07-.28,.19-.55,.34-.81,.15-.26,.26-.44,.33-.54,.17-.24,.4-.52,.7-.85,.29-.32,.58-.56,.85-.7l-5.41-2.91c.53-.33,.99-.76,1.37-1.31Zm-2.52-3.65c-.06,.44-.19,.8-.38,1.08-.38,.53-.85,1.02-1.43,1.46-.57,.44-1.19,.77-1.86,.99s-1.35,.29-2.03,.2c.08-.58,.21-1.09,.37-1.56,.16-.46,.41-.94,.76-1.43,.25-.36,.62-.74,1.1-1.13,.48-.39,1-.68,1.55-.84s1.05-.09,1.51,.23c.33,.24,.47,.57,.42,1.01Z"/>
          <path class="cls-5" d="M145.78,388.99c-.45-.6-1.02-1.12-1.72-1.54l1.62-3.01c.25-.44,.12-.79-.38-1.03-.13-.06-.27-.11-.41-.15l-3.12-.92-.24,.49c.21,.09,.31,.25,.3,.46,0,.22-.05,.41-.13,.56l-1.15,2.18c-2.49-.46-4.28,.44-5.37,2.69-.32,.67-.44,1.29-.34,1.85,.1,.57,.51,1.03,1.23,1.38,.39,.19,.78,.35,1.17,.49,.39,.14,.78,.3,1.16,.47-.42,.18-.85,.35-1.29,.51-.44,.17-.88,.33-1.32,.48-1.38,.49-2.47,.93-3.28,1.32s-1.43,.77-1.85,1.15c-.43,.38-.75,.8-.98,1.27-.26,.53-.28,.96-.08,1.29s.54,.62,1.01,.85c.15,.07,.3,.13,.44,.17,.14,.04,.29,.09,.43,.15l2.58,.96,.19-.38c-.34-.26-.56-.51-.66-.74s-.05-.56,.15-.97c.1-.21,.29-.42,.55-.64,.27-.21,.7-.46,1.29-.75s1.43-.64,2.5-1.05c.8,.5,1.21,1.03,1.22,1.61,.01,.58-.13,1.26-.42,2.05-.44,1.19-.71,2.08-.84,2.69-.12,.6,.1,1.04,.68,1.32,.29,.14,.66,.27,1.1,.39,.44,.12,.89,.23,1.34,.34,.45,.11,.83,.2,1.13,.28l.16-.33s-.1-.03-.18-.07c-.35-.17-.45-.52-.3-1.04,.15-.52,.35-1.12,.59-1.8,.22-.58,.39-1.18,.53-1.79,.14-.62,.14-1.18,0-1.7-.14-.52-.55-.94-1.21-1.26l-1.24-.6c-.41-.2-.83-.39-1.25-.57,.33-.14,.55-.24,.67-.29,.11-.05,.22-.09,.33-.13,.1-.04,.29-.12,.56-.24s.73-.32,1.37-.59c.69-.31,1.34-.63,1.94-.97,.6-.34,1.08-.86,1.44-1.56l1.2,.35c-.51,.75-.59,1.46-.25,2.13s.87,1.17,1.59,1.52c.35,.17,.76,.3,1.22,.39,.46,.09,.88,.11,1.27,.05-.16-.29-.25-.66-.28-1.1-.03-.44,.03-.81,.18-1.11,.14-.28,.3-.56,.5-.84,.2-.28,.4-.53,.62-.75l-5.62-1.7c.24-.87,.13-1.61-.32-2.21Zm-3.41,1.04c-.29,.59-.66,1.06-1.13,1.41-.47,.35-.99,.67-1.57,.94-.57-.35-.91-.75-1.01-1.19-.11-.44-.02-.95,.26-1.53,.16-.33,.39-.68,.69-1.03,.3-.35,.65-.62,1.04-.79,.39-.17,.79-.16,1.2,.04,.47,.23,.72,.53,.76,.93,.04,.39-.04,.8-.24,1.22Z"/>
          <path class="cls-5" d="M176.06,397.41c-.95-.29-1.93-.45-2.93-.48-1-.04-1.95,.09-2.86,.37s-1.7,.75-2.38,1.4c-.68,.65-1.19,1.51-1.51,2.6-.27,.89-.42,1.91-.46,3.06-.04,1.15,0,2.3,.13,3.46s.29,2.19,.49,3.12l-2.57,.1c-.11-.24-.32-.44-.63-.62-.3-.17-.57-.29-.81-.36-.37-.11-.81-.16-1.31-.16-.5,0-.95,.05-1.34,.14-.01,.37-.04,.76-.09,1.16-.05,.4-.13,.78-.24,1.14-.08,.27-.2,.56-.34,.86-.15,.3-.32,.57-.51,.8,.09,.13,.23,.25,.41,.36,.18,.11,.34,.19,.49,.23,.5,.15,1.06,.2,1.69,.16,.63-.04,1.21-.2,1.74-.49,.53-.29,.88-.72,1.06-1.31,.03-.1,.06-.25,.1-.44,.04-.19,.04-.35,.02-.48l6.01-.32c-.21-1.16-.37-2.34-.47-3.57-.1-1.22-.09-2.42,.01-3.59,.83,.23,1.68,.39,2.57,.49,.88,.1,1.73,.07,2.54-.09,.81-.16,1.53-.5,2.15-1.01,.62-.52,1.08-1.27,1.37-2.26,.28-.94,.19-1.81-.26-2.62-.45-.81-1.15-1.36-2.07-1.64Zm-.9,2.48c-.2,.67-.59,1.27-1.16,1.79-.57,.52-1.22,.93-1.95,1.23-.73,.3-1.43,.46-2.1,.49,.11-.54,.31-1.14,.59-1.8s.63-1.28,1.04-1.85c.41-.57,.87-1.02,1.38-1.33,.51-.31,1.04-.38,1.6-.22,.39,.12,.62,.35,.67,.68,.05,.34,.03,.67-.07,1Z"/>
          <path class="cls-5" d="M228.6,421.6c-.05-.25-.08-.59-.07-1.04,0-.38,.03-.92,.06-1.62,.04-.7,.08-1.47,.13-2.33,.05-.85,.11-1.72,.16-2.6,.05-.88,.1-1.69,.14-2.44,.04-.75,.06-1.36,.07-1.83,.02-1.07-.09-2.04-.33-2.88-.24-.85-.69-1.52-1.34-2.02-.65-.5-1.59-.76-2.82-.78-.92-.01-1.82,.08-2.72,.28-.9,.21-1.72,.56-2.46,1.06s-1.35,1.18-1.8,2.04c-.24,.46-.45,.9-.62,1.34-.17,.44-.3,.92-.4,1.44l-6.58,.79c.15,.31,.27,.66,.34,1.07,.08,.41,.11,.78,.11,1.11,0,.37-.06,.78-.17,1.23s-.33,.79-.65,1.03c.16,.12,.37,.2,.6,.24,.24,.04,.46,.06,.65,.06,1.26,.02,2.22-.39,2.87-1.23,.65-.84,1.02-1.84,1.11-3l1.59-.22c-.08,.98-.14,1.97-.17,2.97s-.05,1.99-.07,2.97c-.02,1.35,0,2.38,.07,3.11,.07,.73,.16,1.25,.27,1.57,.11,.31,.22,.53,.33,.65,.19,.23,.47,.34,.83,.35,.18,0,.35,0,.53-.04l3.04-.4v-.38c-.59-.12-.93-.45-1.03-.99-.09-.54-.13-1.41-.11-2.59l.02-1.33c.04-2.41,.12-4.35,.26-5.82,.13-1.47,.28-2.59,.46-3.37,.17-.78,.35-1.33,.52-1.66,.17-.33,.32-.56,.45-.68,.18-.18,.38-.31,.61-.37s.46-.09,.71-.09c.64,.01,1.12,.24,1.43,.67,.31,.44,.51,.96,.6,1.56,.09,.6,.13,1.14,.12,1.63,0,.46-.04,1.09-.08,1.89-.05,.8-.1,1.69-.17,2.66-.06,.97-.13,1.95-.2,2.95-.07,1-.13,1.92-.18,2.77-.05,.86-.08,1.55-.09,2.1,0,.46,.05,.84,.19,1.15,.13,.31,.47,.47,1,.48,.19,0,.37,0,.56-.04l3.13-.4v-.48c-.53-.11-.82-.28-.88-.53Z"/>
          <path class="cls-5" d="M270.39,411.34c-.55,.11-1.07,.28-1.56,.51-.49,.23-1,.41-1.54,.53l-.67-2.26c-.16-.55-.38-1.04-.66-1.49-.28-.45-.64-.79-1.07-1.02-.43-.23-.97-.29-1.6-.16-.46,.09-1.07,.28-1.83,.57-.76,.29-1.45,.56-2.06,.81l-.23-4.66c-.02-.35-.04-.76-.07-1.24-.03-.48-.06-.81-.1-1-.1-.49-.49-.66-1.19-.53-.1,.02-.25,.06-.47,.12s-.38,.11-.48,.15l-2.93,1.04,.1,.5c.56,.05,.89,.36,1,.92,.03,.13,.06,.43,.09,.88,.03,.46,.07,.99,.11,1.62,.04,.62,.07,1.24,.11,1.87s.06,1.19,.09,1.67c-1.76,.35-3.25,.94-4.47,1.8-1.22,.85-2.08,1.95-2.59,3.29-.51,1.34-.58,2.94-.22,4.78,.11,.56,.31,.96,.6,1.2s.72,.31,1.29,.2c.23-.04,.45-.1,.65-.17l2.81-.96-.09-.46c-.4,.03-.71-.48-.91-1.54-.13-.69-.21-1.4-.22-2.14-.01-.73,.08-1.43,.28-2.08,.19-.66,.53-1.22,.99-1.7,.47-.48,1.11-.82,1.91-1.02l.28,5.99c.01,.27,.04,.6,.07,1,.04,.4,.07,.7,.11,.89,.09,.44,.31,.69,.67,.73,.36,.05,.72,.04,1.08-.03,.39-.08,.96-.23,1.7-.45,.74-.22,1.41-.43,2.01-.62l-.09-.46c-.35,.04-.64-.05-.88-.25-.23-.21-.38-.48-.45-.83-.08-.4-.13-.8-.15-1.2l-.35-6.29c.8-.16,1.49-.11,2.1,.15,.6,.25,1.01,.8,1.23,1.65l1.44,5.65c.12,.46,.33,.77,.64,.93,.3,.16,.68,.19,1.13,.1,.51-.1,.99-.26,1.46-.49,.46-.23,.94-.39,1.44-.48l1.52-.3c.58-.11,1.13-.32,1.66-.63,.53-.31,.95-.71,1.24-1.19,.3-.49,.38-1.06,.25-1.72-.35-1.79-1.41-2.51-3.17-2.17Zm-.74,4.28c-.1,.41-.33,.65-.7,.72-.29,.06-.49,0-.61-.19-.12-.19-.2-.39-.26-.62-.08-.36-.17-.73-.27-1.09-.1-.36-.19-.73-.28-1.09,.11-.04,.22-.07,.33-.1s.22-.04,.34-.07c.42-.08,.76,.04,1.01,.35,.25,.32,.41,.66,.48,1.02,.06,.3,.04,.65-.06,1.06Z"/>
          <path class="cls-5" d="M307.66,396.73c-.37-.62-.7-1.26-.98-1.91-.7,.39-1.41,.79-2.11,1.2-.71,.41-1.39,.85-2.05,1.3-1.06,.72-1.95,1.49-2.66,2.28-.71,.8-1.17,1.69-1.37,2.69-.2,1-.05,2.16,.45,3.48-.83,.36-1.52,.55-2.09,.58-.57,.03-1.03-.38-1.4-1.22-.38-.87-.53-1.75-.45-2.63,.08-.88,.29-1.77,.63-2.66,.34-.89,.73-1.77,1.16-2.64,.43-.87,.83-1.73,1.19-2.57,.36-.84,.61-1.66,.72-2.45,.12-.79,.02-1.54-.29-2.26-.14-.31-.3-.6-.51-.86-.2-.26-.5-.3-.9-.13-.29,.12-.53,.25-.73,.38l-2.77,1.82,.21,.5c.18-.07,.33-.04,.44,.07,.11,.12,.19,.24,.25,.38,.25,.57,.29,1.23,.14,1.97-.16,.74-.42,1.53-.81,2.38-.38,.85-.8,1.73-1.25,2.65-.45,.92-.84,1.85-1.19,2.79-.34,.94-.55,1.87-.62,2.8-.07,.93,.08,1.82,.46,2.69,.46,1.06,1.16,1.72,2.11,1.99s1.92,.19,2.93-.24c.86-.37,1.62-.86,2.29-1.45l4.42-3.91c-.15-.35-.3-.7-.45-1.05-.15-.35-.28-.71-.39-1.07-.3-.97-.33-1.72-.07-2.22,.26-.51,.83-.99,1.7-1.45,.39,.92,.92,1.48,1.59,1.68,.67,.2,1.44,.12,2.31-.26,.22-.1,.5-.25,.83-.45,.33-.2,.56-.41,.71-.62-.61-.42-1.1-.94-1.47-1.56Z"/>
          <path class="cls-5" d="M337.8,384.59c-.15-.22-.27-.46-.38-.74-.1-.27-.12-.54-.03-.8-.14,.02-.3,.08-.47,.17-.18,.09-.32,.18-.44,.26-.37,.24-.75,.56-1.13,.94-.39,.38-.71,.81-.94,1.27-.24,.46-.31,.94-.21,1.44-.22,.17-.43,.34-.65,.52-.21,.18-.44,.34-.67,.49-.11,.08-.23,.06-.35-.04-.12-.1-.2-.2-.25-.28l-3.79-6.89c.23-.11,.47-.22,.71-.34,.24-.12,.46-.25,.67-.39,.78-.52,1.4-1.2,1.85-2.04,.45-.84,.69-1.73,.7-2.66s-.24-1.81-.78-2.61c-.65-.98-1.5-1.63-2.55-1.94-1.05-.31-2.08-.12-3.11,.56-.69,.46-1.32,1-1.89,1.64-.57,.63-1.21,1.19-1.93,1.66-.81,.54-1.58,1.18-2.29,1.92-.71,.74-1.29,1.55-1.73,2.42s-.66,1.78-.66,2.71,.31,1.86,.92,2.79c.64,.96,1.4,1.57,2.28,1.84,.88,.27,1.82,.07,2.81-.59,.44-.29,.82-.65,1.14-1.07,.32-.42,.59-.87,.81-1.35l3.06,5.66c.08,.14,.2,.35,.36,.62,.16,.27,.28,.48,.37,.61,.33,.5,.67,.76,1.01,.77s.74-.14,1.22-.46c.42-.28,.94-.69,1.56-1.21,.62-.53,1.19-1.01,1.72-1.44,.56,.66,1.11,.97,1.66,.92s1.15-.29,1.8-.72c.43-.29,.82-.62,1.18-.99s.63-.81,.84-1.29c-.56,.03-1.02-.08-1.4-.31-.37-.24-.71-.58-1.01-1.03Zm-13.28-1.49c-.15,.22-.31,.39-.47,.5-.27,.18-.54,.2-.82,.07-.28-.13-.54-.32-.77-.57-.23-.25-.41-.47-.54-.67-.37-.55-.7-1.19-1-1.91-.3-.72-.43-1.44-.39-2.16,.04-.72,.37-1.33,1.01-1.85l3.35,6.02c-.1,.16-.22,.35-.37,.57Zm3.45-3.11l-3.28-5.86c.09-.09,.19-.17,.28-.26,.09-.08,.19-.16,.29-.23,.48-.32,.94-.35,1.38-.1,.44,.25,.8,.58,1.07,.99,.13,.2,.33,.53,.57,.99,.25,.46,.47,.95,.68,1.48,.21,.53,.32,1.03,.34,1.49,.02,.46-.13,.8-.45,1.01-.28,.18-.57,.35-.89,.49Z"/>
          <path class="cls-5" d="M373.79,351.03c-.22-.11-.5-.32-.85-.62-.49-.43-1.08-.98-1.77-1.65-.69-.66-1.41-1.36-2.16-2.1-.75-.74-1.47-1.44-2.16-2.1-.69-.66-1.27-1.21-1.75-1.63-.81-.72-1.62-1.26-2.42-1.63-.8-.37-1.6-.47-2.4-.29-.8,.18-1.61,.73-2.43,1.65-1.09,1.23-1.8,2.41-2.13,3.54-.33,1.13-.35,2.22-.07,3.27,.29,1.05,.81,2.07,1.56,3.06,.76,.99,1.68,1.97,2.76,2.93,.78,.69,1.38,1.17,1.8,1.43,.42,.26,.73,.41,.93,.44,.2,.03,.37,.06,.52,.07,.12,0,.23-.03,.32-.11,.09-.08,.17-.16,.24-.24,.09-.1,.17-.21,.25-.33,.07-.12,.14-.23,.21-.34l1.58-2.65-.3-.26c-.34,.23-.62,.37-.84,.39-.22,.03-.46-.05-.72-.24-.26-.18-.61-.48-1.06-.87l-.84-.75c-1.07-.95-2.03-1.89-2.87-2.83-.84-.93-1.41-1.8-1.72-2.61-.31-.81-.21-1.51,.3-2.08,.43-.48,.91-.7,1.44-.65,.54,.05,1.06,.24,1.57,.55s.95,.64,1.32,.96c.39,.35,.89,.81,1.49,1.39,.6,.58,1.25,1.21,1.95,1.89,.7,.68,1.39,1.36,2.08,2.05,.69,.69,1.33,1.31,1.93,1.89,.6,.57,1.09,1.03,1.47,1.37,.34,.3,.68,.51,1,.61,.32,.1,.66-.05,1.02-.45,.12-.14,.24-.29,.34-.45l1.73-2.64-.36-.32c-.43,.34-.75,.45-.98,.34Z"/>
          <path class="cls-5" d="M387.24,332.54c-.15-.1-.27-.24-.38-.43l-5.21-8.94c-.08-.13-.17-.24-.28-.31-.29-.2-.54-.14-.75,.17l-2.1,3.11c-.05-.1-.21-.35-.46-.75-.26-.41-.55-.86-.88-1.37s-.64-.96-.93-1.37c-.29-.41-.5-.65-.63-.74-.48-.32-1.07-.22-1.78,.3-.71,.52-1.46,1.37-2.25,2.54-.38,.57-.8,1.23-1.24,2-.45,.77-.85,1.55-1.22,2.35-.36,.8-.62,1.55-.77,2.24,.59,.01,1.15,.19,1.67,.54,.29,.2,.57,.53,.83,.99,.26,.47,.46,.87,.59,1.2,.17-.05,.37-.19,.58-.44,.21-.25,.37-.44,.46-.57,.37-.55,.58-1.16,.63-1.82,.05-.66-.06-1.3-.32-1.91-.26-.61-.67-1.1-1.23-1.48-.14-.09-.28-.17-.42-.23,.12-.3,.24-.54,.37-.73,.38-.57,.71-.94,.97-1.12,.26-.18,.65-.1,1.15,.24,.27,.18,.5,.42,.69,.71l2.09,3.23,2.32-3.44,5.66,9.24c.1,.15,.21,.3,.32,.45,.12,.15,.25,.28,.41,.38,.35,.23,.67,.28,.97,.13,.3-.15,.55-.37,.76-.68,.13-.19,.24-.38,.31-.57l1.16-2.63-.45-.3c-.2,.15-.4,.15-.61,.01Z"/>
          <path class="cls-5" d="M403.22,304.39c-.15,.2-.32,.28-.52,.24-.19-.04-.38-.1-.56-.19-.88-.43-1.71-.93-2.48-1.52-.77-.59-1.54-1.17-2.31-1.76-.77-.58-1.58-1.08-2.43-1.5-1.52-.74-2.77-.93-3.73-.57-.97,.35-1.81,1.27-2.53,2.75-.48,.99-.86,2.05-1.14,3.17-.28,1.12-.37,2.23-.27,3.34l-5.18-2.51c-.25-.12-.5-.18-.74-.18s-.43,.15-.58,.45c-.07,.14-.12,.3-.15,.48l-.64,3.6,.32,.15c.19-.3,.41-.43,.66-.41,.25,.03,.51,.11,.79,.24l3.86,1.87c.36,.17,.6,.25,.73,.23,.12-.02,.23-.12,.31-.28,.09-.18,.22-.51,.41-.97,.18-.46,.35-.88,.49-1.24,.39,1.41,1.17,2.61,2.33,3.59l1.21-2.31c.57,1.21,1.35,2.3,2.33,3.28s2.08,1.75,3.28,2.34c.38,.18,.75,.29,1.11,.33,.36,.04,.65-.17,.87-.63,.03-.06,.06-.12,.08-.18,.02-.06,.04-.12,.07-.19l.91-2.93-.34-.17c-.18,.19-.36,.28-.55,.29-.19,0-.42-.06-.7-.19-.09-.04-.23-.14-.42-.3-.2-.16-.4-.33-.6-.5-.21-.18-.36-.31-.47-.41l-4.59-4.13-.74,1.53c-.49-.41-.97-.93-1.42-1.55-.45-.62-.77-1.29-.96-2s-.12-1.4,.2-2.06c.34-.7,.79-1.08,1.34-1.13,.55-.05,1.14,.07,1.76,.37,.53,.26,1.18,.64,1.94,1.15,.77,.51,1.58,1.06,2.42,1.65,.85,.59,1.66,1.15,2.44,1.66s1.44,.9,1.98,1.16c.42,.2,.73,.28,.93,.24s.36-.2,.48-.45c.06-.11,.11-.23,.15-.35,.04-.12,.09-.24,.13-.36l1.01-2.92-.46-.22Z"/>
        </g>
      </g>
      <g>
        <g class="cls-16">
          <rect class="cls-19" x="250.24" y="212.84" width=".03" height=".04" transform="translate(-77.33 187.82) rotate(-36.01)"/>
        </g>
        <g class="cls-10">
          <rect class="cls-1" x="140.98" y="179.41" width="81.45" height="136.58"/>
        </g>
        <g class="cls-9">
          <rect class="cls-18" x="102.26" y="261.23" width="49.27" height="49.77" transform="translate(-143.96 129.26) rotate(-36.01)"/>
        </g>
        <g class="cls-17">
          <rect class="cls-20" x="229.74" y="179.41" width="81.45" height="136.58"/>
        </g>
        <g class="cls-11">
          <rect class="cls-15" x="125.93" y="82.03" width="253.5" height="262.6" transform="translate(-77.14 189.31) rotate(-36.01)"/>
          <rect class="cls-13" x="125.93" y="82.03" width="253.51" height="262.6" transform="translate(-77.14 189.3) rotate(-36.01)"/>
        </g>
        <path class="cls-8" d="M335.02,316.51l-2.88-1.91-12.45-15.04c-1.37,.9-9.26,5.69-31.13,12.5-5.69,1.77-10.77,2.53-15.07,2.23-7.79-.53-13.94-7.11-13.99-14.98-.27-38.55-.25-66.2,.05-79.96,.27-12.78-7.94-23.95-16.19-28.39-8.95-4.8-19.22-6.03-28.95-3.46-23.62,6.25-25.75,30.33-25.77,30.58v98.18s-17.39,0-17.39,0v-.28c-.02-.42-.96-42.21,0-90.46,.5-25.32,17.18-45.22,31.09-57.46,12.73-11.21,25.53-18.21,29.25-20.14h-19.36v-37.56l.31,.02c9.23,.68,19.41,25.6,20.45,28.21h27.08l-1.55,.56c-18.99,6.84-40.35,31.25-45.63,37.53,17.28-2.93,27.52,.88,27.62,.92h0c36.11,9.56,36.53,40.97,36.53,42.3,0,6.19,.02,15.11,.05,24.73,.06,21.98,.12,46.9-.05,52.31-.07,2.31,.53,4.12,1.78,5.36,1.96,1.94,4.91,1.85,4.94,1.84,12.69,2.32,50.49-15.82,50.87-16l.41-.2v28.57Zm-163.21-.82h16.25v-97.63c.02-.27,2.18-24.75,26.2-31.11,9.86-2.61,20.29-1.36,29.37,3.51,8.41,4.52,16.77,15.9,16.5,28.91-.3,13.75-.31,41.39-.05,79.94,.05,7.57,5.96,13.9,13.46,14.41,4.24,.29,9.24-.45,14.86-2.21,24.08-7.51,31.12-12.52,31.19-12.57l.22-.16,12.76,15.42,1.89,1.24v-26.59c-4.37,2.09-38.49,18.11-50.75,15.86-.06,.01-3.16,.12-5.3-2-1.37-1.36-2.03-3.3-1.95-5.78,.17-5.4,.11-30.31,.05-52.29-.03-9.62-.05-18.54-.05-24.73,0-1.32-.41-32.32-36.14-41.76l-2.14-.57h.24c-3.74-.95-12.93-2.58-26.21-.2l-.77,.14,.5-.6c4.17-5.02,25.49-29.92,44.92-37.75h-24.26l-.07-.18c-.11-.27-10.62-26.75-19.72-27.99v36.36h21.25l-1.13,.55c-.15,.07-15.22,7.41-30.21,20.61-13.81,12.16-30.38,31.93-30.88,57.03-.91,46.16-.09,86.41,0,90.16Z"/>
      </g>
    </g>
  </g>
</svg>